<svg width="33" height="33" viewBox="0 0 33 33" fill="none" xmlns="http://www.w3.org/2000/svg">
<path d="M24.424 22.0495L22.7082 23.9479C22.5439 24.1288 22.3116 24.2319 22.0701 24.232C21.8285 24.232 21.5961 24.1288 21.4325 23.9489L19.7161 22.0495C19.4849 21.7935 19.4284 21.439 19.5684 21.1241C19.7083 20.8095 20.0091 20.614 20.3534 20.614H20.7399V15.9469C20.7399 15.214 21.3361 14.6177 22.069 14.6177C22.8019 14.6177 23.4 15.214 23.4 15.9469V20.614H23.7864C24.1308 20.614 24.4316 20.8095 24.5715 21.1242C24.7114 21.4391 24.6549 21.7937 24.424 22.0494V22.0495ZM22.1211 30.1814C22.1211 30.43 21.9195 30.6315 21.6708 30.6315H1.0309C0.911404 30.6315 0.796871 30.5841 0.712438 30.4996C0.627939 30.415 0.580502 30.3005 0.580566 30.1811C0.581662 26.1684 2.36218 22.9317 5.59405 21.0672C6.55402 20.5133 7.60576 20.1054 8.71094 19.8532C6.95956 18.9095 5.76647 17.058 5.76647 14.9329V14.0194H4.69403C3.86387 14.0194 3.18853 13.344 3.18853 12.514C3.18853 11.6839 3.86394 11.0085 4.69403 11.0085H5.16873C5.24407 9.66089 5.76176 8.3666 6.64767 7.332C7.50083 6.33568 8.6441 5.63669 9.90191 5.33157C9.9197 4.54705 10.563 3.91412 11.3518 3.91412C12.1406 3.91412 12.7819 4.54705 12.7997 5.33157C14.0575 5.63669 15.2008 6.33568 16.054 7.332C16.9399 8.3666 17.4576 9.66089 17.5329 11.0085H18.0076C18.8378 11.0085 19.5131 11.6839 19.5131 12.514C19.5131 13.3441 18.8377 14.0194 18.0076 14.0194H16.937V14.9329C16.937 17.0459 15.7575 18.8885 14.0224 19.8371C15.1361 20.0849 16.1941 20.4915 17.1567 21.0478C20.3597 22.8985 22.1228 26.1423 22.1211 30.1814ZM10.9315 7.54444C10.9315 7.77615 11.1201 7.96467 11.3518 7.96467C11.5835 7.96467 11.7701 7.77615 11.7701 7.54444V5.36483C11.7701 5.13312 11.5825 4.94459 11.3518 4.94459C11.1211 4.94459 10.9315 5.13312 10.9315 5.36483V7.54444ZM18.0075 12.9889C18.2695 12.9889 18.4826 12.7758 18.4826 12.514C18.4826 12.2521 18.2695 12.0389 18.0075 12.0389H4.69409C4.43216 12.0389 4.21907 12.252 4.21907 12.514C4.21907 12.7759 4.43216 12.9889 4.69409 12.9889H18.0075ZM11.3517 19.4877C13.8632 19.4877 15.9064 17.4444 15.9064 14.9329V14.0194H6.79701V14.9329C6.79701 17.4444 8.84023 19.4877 11.3518 19.4877H11.3517ZM32.3436 21.1248C32.2035 20.8097 31.902 20.614 31.5567 20.614H31.172V15.9469C31.172 15.214 30.5749 14.6177 29.8411 14.6177C29.1073 14.6177 28.512 15.214 28.512 15.9469V20.614H28.1255C27.78 20.614 27.4786 20.8102 27.3389 21.1263C27.1995 21.4414 27.2571 21.7957 27.4881 22.0495L29.2028 23.9469C29.3656 24.128 29.5983 24.2319 29.8411 24.2319C30.0839 24.2319 30.3166 24.128 30.4784 23.948L32.196 22.0494C32.4269 21.7937 32.4834 21.4394 32.3436 21.1247V21.1248ZM27.6724 24.6225H27.2859V23.0485C27.2859 22.3146 26.6889 21.7176 25.9551 21.7176C25.2213 21.7176 24.6259 22.3146 24.6259 23.0485V24.6225H24.2394C23.8946 24.6225 23.5935 24.8183 23.4535 25.1334C23.3135 25.4486 23.3704 25.8036 23.6023 26.0601L25.3186 27.9575C25.4822 28.1374 25.7146 28.2405 25.9561 28.2405C26.1977 28.2405 26.4299 28.1373 26.5942 27.9567L28.3111 26.0588C28.5416 25.8017 28.5974 25.4464 28.4569 25.1314C28.3167 24.8176 28.0162 24.6226 27.6725 24.6226L27.6724 24.6225ZM21.8546 12.2642C19.5947 10.0042 19.5946 6.32544 21.8544 4.06365C24.1166 1.80353 27.7954 1.80353 30.0553 4.06352C31.1513 5.15941 31.7548 6.61586 31.7548 8.16454C31.7548 9.71322 31.1513 11.1692 30.0553 12.2643C28.9603 13.3601 27.5043 13.9637 25.9556 13.9637C24.407 13.9637 22.9505 13.3602 21.8546 12.2642ZM25.955 4.20377C25.7063 4.20377 25.5047 4.40538 25.5047 4.6541V5.34066C25.1995 5.40911 24.909 5.54639 24.6655 5.75599C24.2985 6.07175 24.0964 6.49701 24.0964 6.95334C24.0964 7.40967 24.2985 7.83493 24.6653 8.15055C25.1163 8.53882 25.5592 8.57994 25.9152 8.61294C26.2122 8.64053 26.4268 8.66038 26.6588 8.85954C26.8238 9.00146 26.9146 9.18458 26.9146 9.37504C26.9146 9.56549 26.8238 9.74854 26.6588 9.89047C26.4692 10.0536 26.2146 10.1355 25.9597 10.1362C25.9581 10.1362 25.9566 10.136 25.955 10.136C25.9536 10.136 25.9523 10.1362 25.951 10.1362C25.6964 10.1351 25.4423 10.0533 25.253 9.89047C25.0878 9.74815 24.9966 9.56511 24.9966 9.37497C24.9966 9.12625 24.795 8.92464 24.5463 8.92464C24.2976 8.92464 24.096 9.12625 24.096 9.37497C24.096 9.83149 24.2982 10.2571 24.6655 10.5732C24.9091 10.7828 25.1995 10.9201 25.5047 10.9886V11.6752C25.5047 11.9239 25.7063 12.1255 25.955 12.1255C26.2037 12.1255 26.4053 11.9239 26.4053 11.6752V10.9889C26.7112 10.9205 27.0022 10.7831 27.2462 10.5732C27.6132 10.2575 27.8153 9.83188 27.8153 9.37497C27.8153 8.91806 27.6132 8.49241 27.2458 8.17621C26.7956 7.78988 26.3535 7.74882 25.9984 7.71588C25.7009 7.6883 25.486 7.66838 25.253 7.46767C25.088 7.32575 24.9972 7.14302 24.9972 6.95314C24.9972 6.76327 25.088 6.58054 25.253 6.43862C25.4423 6.27574 25.6963 6.19402 25.9508 6.19292C25.9522 6.19292 25.9536 6.19311 25.955 6.19311C25.9567 6.19311 25.9583 6.19292 25.96 6.19286C26.2149 6.19376 26.4693 6.27561 26.6589 6.43862C26.824 6.58067 26.9151 6.76372 26.9151 6.95398C26.9151 7.20271 27.1167 7.40432 27.3654 7.40432C27.6141 7.40432 27.8158 7.20271 27.8158 6.95398C27.8158 6.50378 27.6081 6.06691 27.2462 5.75573C27.0022 5.54575 26.7112 5.40833 26.4053 5.34001V4.65384C26.4053 4.40512 26.2037 4.20351 25.955 4.20351V4.20377Z" fill="#009BBE"/>
</svg>
