<svg width="22" height="22" viewBox="0 0 22 22" fill="none" xmlns="http://www.w3.org/2000/svg">
<path d="M12.2891 9.06641C12.645 9.06641 12.9336 8.77784 12.9336 8.42188C12.9336 8.06591 12.645 7.77734 12.2891 7.77734C11.9331 7.77734 11.6445 8.06591 11.6445 8.42188C11.6445 8.77784 11.9331 9.06641 12.2891 9.06641Z" fill="#5B6B79"/>
<path d="M22 12.9336V9.06641H19.146C18.9408 8.19152 18.5997 7.36759 18.1276 6.60662L20.1153 4.61953L17.3811 1.8853L15.3934 3.87239C14.6368 3.40661 13.8022 3.06105 12.9336 2.85463V0H9.06641V2.85463C8.19779 3.06109 7.36317 3.40665 6.60662 3.87243L4.61888 1.88534L1.88465 4.61957L3.87239 6.60666C3.40033 7.36759 3.05916 8.19152 2.85398 9.06641H0V12.9336H2.85398C3.05916 13.8085 3.40033 14.6324 3.87239 15.3934L1.88465 17.3805L4.61888 20.1147L6.60662 18.1276C7.36317 18.5934 8.19779 18.9389 9.06641 19.1454V22H12.9336V19.1454C13.8022 18.9389 14.6368 18.5934 15.3934 18.1276L17.3811 20.1147L20.1153 17.3804L18.1276 15.3933C18.5997 14.6324 18.9408 13.8084 19.146 12.9336H22V12.9336ZM15.5117 14.2227H11.5258C11.2588 14.9713 10.5501 15.5117 9.71094 15.5117C8.87176 15.5117 8.16303 14.9713 7.89607 14.2227H6.48828V12.9336H7.89607C8.16303 12.185 8.87176 11.6445 9.71094 11.6445C10.5501 11.6445 11.2588 12.185 11.5258 12.9336H15.5117V14.2227ZM15.5117 9.06641H14.1039C13.837 9.81501 13.1282 10.3555 12.2891 10.3555C11.4499 10.3555 10.7412 9.81501 10.4742 9.06641H6.48828V7.77734H10.4742C10.7412 7.02874 11.4499 6.48828 12.2891 6.48828C13.1282 6.48828 13.837 7.02874 14.1039 7.77734H15.5117V9.06641Z" fill="#5B6B79"/>
<path d="M9.71094 14.2227C10.0669 14.2227 10.3555 13.9341 10.3555 13.5781C10.3555 13.2222 10.0669 12.9336 9.71094 12.9336C9.35498 12.9336 9.06641 13.2222 9.06641 13.5781C9.06641 13.9341 9.35498 14.2227 9.71094 14.2227Z" fill="#5B6B79"/>
</svg>
