<svg width="29" height="30" viewBox="0 0 29 30" fill="none" xmlns="http://www.w3.org/2000/svg">
<path fill-rule="evenodd" clip-rule="evenodd" d="M9.62949 26.9053H14.4572V27.2501C14.4572 28.5782 13.3714 29.664 12.0433 29.664C10.7153 29.664 9.62949 28.5775 9.62949 27.2501V26.9053Z" fill="#F04B5B"/>
<path fill-rule="evenodd" clip-rule="evenodd" d="M12.7602 19.4481C11.9457 19.4481 11.2257 19.0328 10.8191 18.3271C10.4125 17.6226 10.4125 16.7926 10.8191 16.0881L15.5282 7.93005C14.5734 7.15942 13.3615 6.69531 12.044 6.69531C8.98739 6.69531 6.48578 9.19692 6.48578 12.2535C6.48578 17.7153 5.53099 20.2311 1.88919 24.5774V26.1644H22.1993V24.5774C20.5808 22.6449 19.4932 21.0753 18.7837 19.4481H12.7602Z" fill="#FBC52A"/>
<path fill-rule="evenodd" clip-rule="evenodd" d="M20.0945 14.9423C20.6006 14.9423 21.0128 15.3558 21.0128 15.86C21.0128 16.3649 20.5994 16.7784 20.0945 16.7784C19.5902 16.7784 19.1768 16.3649 19.1768 15.86C19.1768 15.3539 19.5883 14.9423 20.0945 14.9423Z" fill="black"/>
<path fill-rule="evenodd" clip-rule="evenodd" d="M21.0548 7.34291C21.2909 7.61297 21.3892 7.93865 21.3403 8.29461L20.6816 13.1273C20.6445 13.4041 20.4115 13.6074 20.1334 13.6074H20.058C19.7793 13.6074 19.5463 13.4041 19.508 13.1273L18.8511 8.29461C18.8016 7.93865 18.8999 7.61297 19.1366 7.34291C19.6199 6.78796 20.5691 6.78796 21.0548 7.34291Z" fill="black"/>
<path fill-rule="evenodd" clip-rule="evenodd" d="M28.6221 16.5188L24.9537 10.1671L21.2859 3.81356C21.0338 3.37541 20.5994 3.12512 20.0945 3.12512C19.5902 3.12512 19.1576 3.37541 18.9036 3.81356L15.2371 10.1671L11.5687 16.5188C11.3166 16.9569 11.3166 17.4581 11.5687 17.8938C11.8209 18.3319 12.2534 18.5822 12.7602 18.5822H27.4312C27.9355 18.5822 28.3699 18.3319 28.6221 17.8938C28.8742 17.4581 28.8742 16.9569 28.6221 16.5188ZM22.0739 8.39408L21.417 13.2274C21.349 13.718 21.0177 14.1123 20.5765 14.2718C21.2575 14.4782 21.7538 15.1104 21.7538 15.8606C21.7538 16.7765 21.0109 17.5193 20.0945 17.5193C19.1786 17.5193 18.4358 16.7765 18.4358 15.8606C18.4358 15.1104 18.9333 14.4782 19.6143 14.2718C19.173 14.1123 18.8406 13.718 18.7738 13.2274L18.1151 8.39408C18.0378 7.82862 18.2009 7.28541 18.5773 6.85467C19.3572 5.96107 20.8336 5.96107 21.6135 6.85467C21.9898 7.28541 22.1511 7.82862 22.0739 8.39408Z" fill="#F04B5B"/>
<path fill-rule="evenodd" clip-rule="evenodd" d="M21.0128 15.86C21.0128 16.3649 20.5994 16.7784 20.0945 16.7784C19.5902 16.7784 19.1768 16.3649 19.1768 15.86C19.1768 15.3539 19.5883 14.9423 20.0945 14.9423C20.6006 14.9423 21.0128 15.3558 21.0128 15.86Z" fill="black"/>
<path fill-rule="evenodd" clip-rule="evenodd" d="M21.3403 8.29461L20.6816 13.1273C20.6445 13.4041 20.4115 13.6074 20.1334 13.6074H20.058C19.7793 13.6074 19.5463 13.4041 19.508 13.1273L18.8511 8.29461C18.8016 7.93865 18.8999 7.61297 19.1366 7.34291C19.6199 6.78796 20.5691 6.78796 21.0548 7.34291C21.2909 7.61297 21.3892 7.93865 21.3403 8.29461Z" fill="black"/>
<path fill-rule="evenodd" clip-rule="evenodd" d="M21.3403 8.29461L20.6816 13.1273C20.6445 13.4041 20.4115 13.6074 20.1334 13.6074H20.058C19.7793 13.6074 19.5463 13.4041 19.508 13.1273L18.8511 8.29461C18.8016 7.93865 18.8999 7.61297 19.1366 7.34291C19.6199 6.78796 20.5691 6.78796 21.0548 7.34291C21.2909 7.61297 21.3892 7.93865 21.3403 8.29461Z" fill="#F04B5B"/>
<path fill-rule="evenodd" clip-rule="evenodd" d="M21.0128 15.86C21.0128 16.3649 20.5994 16.7784 20.0945 16.7784C19.5902 16.7784 19.1768 16.3649 19.1768 15.86C19.1768 15.3539 19.5883 14.9423 20.0945 14.9423C20.6006 14.9423 21.0128 15.3558 21.0128 15.86Z" fill="#F04B5B"/>
<path fill-rule="evenodd" clip-rule="evenodd" d="M12.0279 5.05761C12.4852 5.05761 12.8597 4.68249 12.8597 4.2258V0.832429C12.8597 0.375118 12.4846 0 12.0279 0C11.5712 0 11.1973 0.375118 11.1973 0.832429V4.2258C11.1973 4.68249 11.5706 5.05761 12.0279 5.05761Z" fill="#FBC52A"/>
<path fill-rule="evenodd" clip-rule="evenodd" d="M7.40101 5.6966C7.62843 6.09273 8.14013 6.22931 8.53626 6.00127C8.93362 5.77199 9.07082 5.2603 8.84092 4.86417L7.14517 1.92626C6.91589 1.52828 6.4042 1.3917 6.00807 1.62159C5.61194 1.84963 5.47537 2.36071 5.7034 2.75684L7.40101 5.6966Z" fill="#FBC52A"/>
<path fill-rule="evenodd" clip-rule="evenodd" d="M1.91143 7.17176L4.84934 8.86751C5.2467 9.09679 5.75654 8.96021 5.98643 8.5647C6.21571 8.16733 6.07728 7.65749 5.68177 7.4276L2.74324 5.73184C2.34525 5.50257 1.83603 5.63915 1.60614 6.03466C1.37872 6.43079 1.5153 6.94248 1.91143 7.17176Z" fill="#FBC52A"/>
<path fill-rule="evenodd" clip-rule="evenodd" d="M5.05761 12.0594C5.05761 11.6021 4.68249 11.2276 4.2258 11.2276H0.832429C0.375118 11.2276 0 11.6027 0 12.0594C0 12.5161 0.375118 12.8912 0.832429 12.8912H4.2258C4.68249 12.8912 5.05761 12.5167 5.05761 12.0594Z" fill="#FBC52A"/>
</svg>
