<svg width="36" height="37" viewBox="0 0 36 37" fill="none" xmlns="http://www.w3.org/2000/svg">
<path d="M28.5 14.6458C24.7778 14.6458 21.75 17.7584 21.75 21.5833C21.75 25.4082 24.7778 28.5208 28.5 28.5208C32.2222 28.5208 35.25 25.4082 35.25 21.5833C35.25 17.7584 32.2222 14.6458 28.5 14.6458ZM28.6088 19.2708H28.3905C28.0373 19.2708 27.75 19.566 27.75 19.9291C27.75 20.1804 27.8857 20.4063 28.1047 20.518L29.5665 21.2696C30.2963 21.645 30.75 22.3989 30.75 23.2375C30.75 24.2196 30.1163 25.0436 29.25 25.3257C29.25 25.3257 29.3317 26.2083 28.5 26.2083C27.6555 26.2083 27.75 25.3257 27.75 25.3257C26.8837 25.0436 26.25 24.2196 26.25 23.2375C26.25 23.2375 26.199 22.3541 27 22.3541C27.8152 22.3541 27.75 23.2375 27.75 23.2375C27.75 23.6006 28.0373 23.8958 28.3905 23.8958H28.6088C28.962 23.8958 29.25 23.6006 29.25 23.2375C29.25 22.9862 29.1143 22.7604 28.8953 22.6486L27.4335 21.897C26.703 21.5216 26.25 20.7678 26.25 19.9291C26.25 18.9471 26.8837 18.123 27.75 17.8409C27.75 17.8409 27.66 16.9583 28.5 16.9583C29.301 16.9583 29.25 17.8409 29.25 17.8409C30.1163 18.123 30.75 18.9471 30.75 19.9291C30.75 19.9291 30.819 20.8125 30 20.8125C29.1757 20.8125 29.25 19.9291 29.25 19.9291C29.25 19.566 28.962 19.2708 28.6088 19.2708Z" fill="#FF1C28"/>
<path d="M34.2796 30.2876L32.7803 28.7467C32.1098 28.1007 31.0276 28.9602 31.7198 29.8366L31.9396 30.0625H4.50006V6.48579L4.71981 6.71164C5.52606 7.45935 6.42681 6.27612 5.78031 5.62168L4.28106 4.08079C4.08831 3.88962 3.65331 3.68843 3.21906 4.08079L1.71981 5.62168C1.11231 6.27612 1.95306 7.45318 2.78031 6.71164L3.00006 6.48579V30.8333C3.00006 31.2588 3.33531 31.6042 3.75006 31.6042H31.9396L31.7198 31.83C31.0808 32.5284 31.9846 33.6415 32.7803 32.92L34.2796 31.3791C34.4731 31.1887 34.6666 30.7231 34.2796 30.2876Z" fill="#FF1C28"/>
<path d="M34.5001 7.70833V5.39583C34.5001 4.921 34.2038 4.625 33.7501 4.625H31.5001C30.5266 4.625 30.4786 6.16667 31.5001 6.16667H31.8721L26.9341 10.9882C21.4628 16.3293 14.2958 19.2708 6.75005 19.2708C5.74955 19.2708 5.7413 20.8125 6.75005 20.8125C14.6813 20.8125 22.2166 17.7207 27.9661 12.1059L33.0001 7.1911V7.70833C33.0001 8.72815 34.5001 8.74048 34.5001 7.70833Z" fill="#FF1C28"/>
<path d="M13.5 22.3542H10.5C10.0853 22.3542 9.75 22.6995 9.75 23.125V27.75C9.75 28.1755 10.0853 28.5208 10.5 28.5208H13.5C13.9148 28.5208 14.25 28.1755 14.25 27.75V23.125C14.25 22.6995 13.9148 22.3542 13.5 22.3542Z" fill="#FF1C28"/>
<path d="M19.5 20.0417H16.5C16.0853 20.0417 15.75 20.387 15.75 20.8125V27.75C15.75 28.1755 16.0853 28.5208 16.5 28.5208H19.5C19.9148 28.5208 20.25 28.1755 20.25 27.75V20.8125C20.25 20.387 19.9148 20.0417 19.5 20.0417Z" fill="#FF1C28"/>
<path d="M7.50002 8.47917H10.5C11.517 8.47917 11.499 6.9375 10.5 6.9375H7.50002C6.49277 6.9375 6.51902 8.47917 7.50002 8.47917Z" fill="#FF1C28"/>
<path d="M7.50002 14.6458H11.25C12.267 14.6458 12.249 13.1042 11.25 13.1042H7.50002C6.49277 13.1042 6.51902 14.6458 7.50002 14.6458Z" fill="#FF1C28"/>
<path d="M7.50002 11.5625H13.5C14.517 11.5625 14.499 10.0208 13.5 10.0208H7.50002C6.49277 10.0208 6.51902 11.5625 7.50002 11.5625Z" fill="#FF1C28"/>
</svg>
