<svg width="22" height="22" viewBox="0 0 22 22" fill="none" xmlns="http://www.w3.org/2000/svg">
<path d="M21.5 7.48499V5.73499C21.5 3.66499 19.82 1.98499 17.75 1.98499H3.75C1.68 1.98499 0 3.66499 0 5.73499V7.48499H21.5Z" fill="#5B6B79"/>
<path d="M15.75 3.485C15.34 3.485 15 3.145 15 2.735V0.735C15 -0.245 16.5 -0.245 16.5 0.735V2.735C16.5 3.145 16.16 3.485 15.75 3.485Z" fill="#5B6B79"/>
<path d="M5.75 3.485C5.34 3.485 5 3.145 5 2.735V0.735C5 -0.245 6.5 -0.245 6.5 0.735V2.735C6.5 3.145 6.16 3.485 5.75 3.485Z" fill="#5B6B79"/>
<path d="M0 8.98499V17.735C0 19.805 1.68 21.485 3.75 21.485H17.75C19.82 21.485 21.5 19.805 21.5 17.735V8.98499H0ZM5.5 16.235C3.86 16.205 3.86 13.765 5.5 13.735C7.14 13.765 7.14 16.205 5.5 16.235ZM10.63 16.235C8.99 16.205 8.99 13.765 10.63 13.735C12.27 13.765 12.27 16.205 10.63 16.235ZM16 16.235C14.36 16.205 14.36 13.765 16 13.735C17.64 13.765 17.64 16.205 16 16.235Z" fill="#5B6B79"/>
</svg>
