<svg width="21" height="21" viewBox="0 0 21 21" fill="none" xmlns="http://www.w3.org/2000/svg">
<path fill-rule="evenodd" clip-rule="evenodd" d="M13.1233 0C12.0083 0 11.1043 0.903922 11.1043 2.01897V10.0948C11.1043 11.2099 12.0083 12.1138 13.1233 12.1138H18.1707C19.2857 12.1138 20.1897 11.2099 20.1897 10.0948V2.01897C20.1897 0.903922 19.2857 0 18.1707 0H13.1233ZM2.01897 8.07587C0.904003 8.07587 0 8.97976 0 10.0948V18.1707C0 19.2858 0.904003 20.1897 2.01897 20.1897H7.06639C8.18136 20.1897 9.08536 19.2858 9.08536 18.1707V10.0948C9.08536 8.97976 8.18136 8.07587 7.06639 8.07587H2.01897ZM0 2.01897C0 0.903922 0.904003 0 2.01897 0H7.06639C8.18136 0 9.08536 0.903922 9.08536 2.01897V4.03794C9.08536 5.15298 8.18136 6.0569 7.06639 6.0569H2.01897C0.904003 6.0569 0 5.15298 0 4.03794V2.01897ZM13.1233 14.1328C12.0083 14.1328 11.1043 15.0367 11.1043 16.1517V18.1707C11.1043 19.2858 12.0083 20.1897 13.1233 20.1897H18.1707C19.2857 20.1897 20.1897 19.2858 20.1897 18.1707V16.1517C20.1897 15.0367 19.2857 14.1328 18.1707 14.1328H13.1233Z" fill="#5B6B79"/>
</svg>
