<svg width="33" height="30" viewBox="0 0 33 30" fill="none" xmlns="http://www.w3.org/2000/svg">
<path d="M4.62336 29.2713C4.61578 29.2713 4.6068 29.2713 4.59783 29.2713C2.90904 29.2713 1.43417 28.3555 0.642721 26.9934L0.630999 26.9716C0.234463 26.3085 0 25.5089 0 24.6546C0 23.8106 0.228773 23.0201 0.627683 22.3417L0.616019 22.3632L12.0682 2.3267C12.8673 0.927702 14.35 0 16.0494 0C16.0586 0 16.0678 2.85897e-05 16.0769 8.57688e-05H16.0755C16.0837 2.85897e-05 16.0934 0 16.1031 0C17.8025 0 19.2853 0.927702 20.0725 2.30432L20.0843 2.3267L31.535 22.3632C31.9218 23.0198 32.1504 23.8099 32.1504 24.6533C32.1504 25.5081 31.9156 26.3082 31.5071 26.9924L31.5186 26.9715C30.716 28.3546 29.2421 29.2698 27.5544 29.2698C27.545 29.2698 27.5357 29.2698 27.5263 29.2697H27.5278L4.62336 29.2713ZM14.0151 3.43469L2.56291 23.4711C2.36372 23.8091 2.24608 24.2157 2.24608 24.6497C2.24608 25.089 2.36658 25.5002 2.57635 25.8519L2.5704 25.8411C2.98286 26.552 3.74037 27.0225 4.60777 27.0225C4.61326 27.0225 4.61875 27.0224 4.62424 27.0224H27.5278C27.5324 27.0224 27.5379 27.0225 27.5434 27.0225C28.4108 27.0225 29.1683 26.552 29.5748 25.8524L29.5808 25.8411C29.7846 25.5001 29.9051 25.089 29.9051 24.6497C29.9051 24.2157 29.7875 23.8091 29.5823 23.4601L29.5883 23.4712L18.1361 3.43472C17.7261 2.71549 16.9643 2.23845 16.0911 2.23845C16.0857 2.23845 16.0802 2.23847 16.0748 2.2385H16.0756C16.0713 2.23847 16.0661 2.23845 16.061 2.23845C15.1876 2.23845 14.4255 2.71546 14.0212 3.42317L14.0151 3.43469ZM14.5803 21.1774C14.5803 21.1762 14.5803 21.1747 14.5803 21.1733C14.5803 20.7625 14.7459 20.3905 15.014 20.1202L15.0139 20.1203C15.2838 19.8451 15.6587 19.6739 16.0737 19.6717H16.0741C16.8999 19.6717 17.5694 20.3412 17.5694 21.167C17.5694 21.9928 16.8999 22.6622 16.0741 22.6622C15.2531 22.6614 14.5871 21.9991 14.5803 21.1796V21.179L14.5803 21.1774ZM14.9541 16.3074V10.7151C14.9541 10.0958 15.4562 9.59367 16.0756 9.59367H16.0771C16.6964 9.59367 17.1985 10.0958 17.1985 10.7151V16.3074C17.1985 16.9267 16.6964 17.4288 16.0771 17.4288C16.0765 17.4288 16.076 17.4288 16.0755 17.4288H16.0756C16.0751 17.4288 16.0746 17.4288 16.0741 17.4288C15.4553 17.4288 14.9535 16.9276 14.9526 16.309V16.3089L14.9541 16.3074Z" fill="#F04B5B"/>
</svg>
