<svg width="13" height="16" viewBox="0 0 13 16" fill="none" xmlns="http://www.w3.org/2000/svg">
<path d="M11.947 1.1378H8.53353C8.53353 0.509386 8.02408 0 7.39573 0H5.12012C4.49178 0 3.98232 0.509386 3.98232 1.1378H0.568898C0.254725 1.1378 0 1.3925 0 1.7067C0 2.02087 0.254725 2.27561 0.568898 2.27561H11.947C12.2611 2.27561 12.5159 2.02087 12.5159 1.7067C12.5159 1.3925 12.2611 1.1378 11.947 1.1378ZM11.378 3.41341H1.1378C0.823631 3.41341 0.568906 3.6681 0.568906 3.98231V13.6537C0.568906 14.9104 1.58768 15.9293 2.84451 15.9293H9.67134C10.9282 15.9293 11.947 14.9104 11.947 13.6537V3.98232C11.947 3.66811 11.6922 3.41341 11.378 3.41341ZM3.98231 12.5159C3.98231 12.83 3.72758 13.0848 3.41341 13.0848C3.09924 13.0848 2.84451 12.83 2.84451 12.5159V6.82683C2.84451 6.51262 3.09924 6.25792 3.41341 6.25792C3.72758 6.25792 3.98231 6.51262 3.98231 6.82683V12.5159ZM6.82683 12.5159C6.82683 12.83 6.57211 13.0848 6.25793 13.0848C5.94375 13.0848 5.68903 12.83 5.68903 12.5159V6.82683C5.68903 6.51262 5.94375 6.25792 6.25793 6.25792C6.57211 6.25792 6.82683 6.51262 6.82683 6.82683V12.5159ZM9.67134 12.5159C9.67134 12.83 9.41662 13.0848 9.10245 13.0848C8.78827 13.0848 8.53354 12.83 8.53354 12.5159V6.82683C8.53354 6.51262 8.78827 6.25792 9.10245 6.25792C9.41662 6.25792 9.67134 6.51262 9.67134 6.82683V12.5159Z" fill="#5B6B79"/>
</svg>
