<svg width="30" height="30" viewBox="0 0 30 30" fill="none" xmlns="http://www.w3.org/2000/svg">
<g clip-path="url(#clip0_205_6388)">
<path fill-rule="evenodd" clip-rule="evenodd" d="M24.5382 22.6406C24.5382 22.7649 24.4888 22.8842 24.4009 22.9721C24.313 23.06 24.1938 23.1094 24.0695 23.1094H17.9968C17.8725 23.1094 17.7532 23.06 17.6653 22.9721C17.5774 22.8842 17.528 22.7649 17.528 22.6406C17.528 22.5163 17.5774 22.3971 17.6653 22.3092C17.7532 22.2213 17.8725 22.1719 17.9968 22.1719H24.0695C24.1938 22.1719 24.313 22.2213 24.4009 22.3092C24.4888 22.3971 24.5382 22.5163 24.5382 22.6406ZM9.75975 5.36186C9.75975 5.23754 9.80913 5.11831 9.89704 5.0304C9.98495 4.94249 10.1042 4.89311 10.2285 4.89311H16.3017C16.426 4.89311 16.5452 4.94249 16.6331 5.0304C16.721 5.11831 16.7704 5.23754 16.7704 5.36186C16.7704 5.48618 16.721 5.6054 16.6331 5.69331C16.5452 5.78122 16.426 5.83061 16.3017 5.83061H10.2285C10.1042 5.83061 9.98495 5.78122 9.89704 5.69331C9.80913 5.6054 9.75975 5.48618 9.75975 5.36186ZM24.5382 8.81777C24.5382 8.94209 24.4888 9.06132 24.4009 9.14923C24.313 9.23714 24.1938 9.28652 24.0695 9.28652H10.2285C10.1042 9.28652 9.98495 9.23714 9.89704 9.14923C9.80913 9.06132 9.75975 8.94209 9.75975 8.81777C9.75975 8.69345 9.80913 8.57422 9.89704 8.48632C9.98495 8.39841 10.1042 8.34902 10.2285 8.34902H24.0695C24.1938 8.34902 24.313 8.39841 24.4009 8.48632C24.4888 8.57422 24.5382 8.69345 24.5382 8.81777ZM24.5382 12.2735C24.5382 12.3978 24.4888 12.5171 24.4009 12.605C24.313 12.6929 24.1938 12.7423 24.0695 12.7423H10.2285C10.1042 12.7423 9.98495 12.6929 9.89704 12.605C9.80913 12.5171 9.75975 12.3978 9.75975 12.2735C9.75975 12.1492 9.80913 12.03 9.89704 11.9421C9.98495 11.8542 10.1042 11.8048 10.2285 11.8048H24.0695C24.1938 11.8048 24.313 11.8542 24.4009 11.9421C24.4888 12.03 24.5382 12.1492 24.5382 12.2735ZM24.5382 15.7294C24.5381 15.8537 24.4887 15.9729 24.4008 16.0607C24.3129 16.1486 24.1938 16.198 24.0695 16.1981H10.2285C10.1042 16.1981 9.98495 16.1487 9.89704 16.0608C9.80913 15.9729 9.75975 15.8537 9.75975 15.7294C9.75975 15.6051 9.80913 15.4858 9.89704 15.3979C9.98495 15.31 10.1042 15.2606 10.2285 15.2606H24.0695C24.1938 15.2606 24.313 15.31 24.4009 15.3979C24.4888 15.4858 24.5382 15.6051 24.5382 15.7294ZM24.5382 19.1846C24.5382 19.309 24.4888 19.4282 24.4009 19.5161C24.313 19.604 24.1938 19.6534 24.0695 19.6534H10.2285C10.1042 19.6534 9.98495 19.604 9.89704 19.5161C9.80913 19.4282 9.75975 19.309 9.75975 19.1846C9.75975 19.0603 9.80913 18.9411 9.89704 18.8532C9.98495 18.7653 10.1042 18.7159 10.2285 18.7159H24.0695C24.1938 18.7159 24.313 18.7653 24.4009 18.8532C24.4888 18.9411 24.5382 19.0603 24.5382 19.1846ZM26.4594 24.764C26.5337 24.7639 26.6048 24.7344 26.6573 24.6819C26.7098 24.6294 26.7393 24.5582 26.7394 24.484V7.75008H21.1449C20.8221 7.74964 20.5127 7.62122 20.2845 7.39297C20.0562 7.16473 19.9278 6.85528 19.9274 6.5325V0.9375H7.83822C7.76402 0.937655 7.6929 0.9672 7.64043 1.01967C7.58796 1.07214 7.55842 1.14326 7.55826 1.21746V24.484C7.55839 24.5582 7.58792 24.6293 7.64039 24.6818C7.69287 24.7343 7.76401 24.7639 7.83822 24.764H26.4594ZM20.7279 0.137051C20.6398 0.049249 20.5205 -3.88332e-05 20.3962 2.29569e-08H7.83822C7.51544 0.000341251 7.20597 0.128719 6.97773 0.356963C6.74948 0.585207 6.6211 0.894675 6.62076 1.21746V4.29838H3.54008C3.21722 4.29863 2.90765 4.42697 2.67933 4.65524C2.45101 4.88351 2.32259 5.19304 2.32227 5.5159V28.7823C2.32254 29.1052 2.45094 29.4148 2.67927 29.6431C2.9076 29.8714 3.21719 29.9998 3.54008 30H22.1612C22.484 29.9996 22.7935 29.8712 23.0217 29.6429C23.25 29.4146 23.3783 29.1051 23.3786 28.7823V25.7014H26.4594C26.7822 25.7011 27.0917 25.5727 27.3199 25.3445C27.5482 25.1162 27.6766 24.8068 27.6769 24.484V7.28139C27.677 7.15703 27.6277 7.03772 27.5398 6.94969L20.7279 0.137051Z" fill="#FDB90E"/>
</g>
<defs>
<clipPath id="clip0_205_6388">
<rect width="30" height="30" fill="white"/>
</clipPath>
</defs>
</svg>
