<svg width="16" height="18" viewBox="0 0 16 18" fill="none" xmlns="http://www.w3.org/2000/svg">
<path fill-rule="evenodd" clip-rule="evenodd" d="M13.3296 13.5844C13.3296 13.659 13.2999 13.7305 13.2472 13.7832C13.1944 13.836 13.1229 13.8656 13.0483 13.8656H9.40472C9.33013 13.8656 9.25859 13.836 9.20584 13.7832C9.1531 13.7305 9.12347 13.659 9.12347 13.5844C9.12347 13.5098 9.1531 13.4382 9.20584 13.3855C9.25859 13.3328 9.33013 13.3031 9.40472 13.3031H13.0483C13.1229 13.3031 13.1944 13.3328 13.2472 13.3855C13.2999 13.4382 13.3296 13.5098 13.3296 13.5844ZM4.46249 3.21711C4.46249 3.14252 4.49212 3.07098 4.54486 3.01824C4.59761 2.96549 4.66915 2.93586 4.74374 2.93586H8.38765C8.46224 2.93586 8.53378 2.96549 8.58652 3.01824C8.63927 3.07098 8.6689 3.14252 8.6689 3.21711C8.6689 3.29171 8.63927 3.36324 8.58652 3.41599C8.53378 3.46873 8.46224 3.49836 8.38765 3.49836H4.74374C4.66915 3.49836 4.59761 3.46873 4.54486 3.41599C4.49212 3.36324 4.46249 3.29171 4.46249 3.21711ZM13.3296 5.29066C13.3296 5.36526 13.2999 5.43679 13.2472 5.48954C13.1944 5.54228 13.1229 5.57191 13.0483 5.57191H4.74374C4.66915 5.57191 4.59761 5.54228 4.54486 5.48954C4.49212 5.43679 4.46249 5.36526 4.46249 5.29066C4.46249 5.21607 4.49212 5.14454 4.54486 5.09179C4.59761 5.03905 4.66915 5.00941 4.74374 5.00941H13.0483C13.1229 5.00941 13.1944 5.03905 13.2472 5.09179C13.2999 5.14454 13.3296 5.21607 13.3296 5.29066ZM13.3296 7.36411C13.3296 7.4387 13.2999 7.51024 13.2472 7.56298C13.1944 7.61573 13.1229 7.64536 13.0483 7.64536H4.74374C4.66915 7.64536 4.59761 7.61573 4.54486 7.56298C4.49212 7.51024 4.46249 7.4387 4.46249 7.36411C4.46249 7.28952 4.49212 7.21798 4.54486 7.16524C4.59761 7.11249 4.66915 7.08286 4.74374 7.08286H13.0483C13.1229 7.08286 13.1944 7.11249 13.2472 7.16524C13.2999 7.21798 13.3296 7.28952 13.3296 7.36411ZM13.3296 9.43762C13.3295 9.5122 13.2999 9.58371 13.2471 9.63645C13.1944 9.68918 13.1229 9.71883 13.0483 9.71887H4.74374C4.66915 9.71887 4.59761 9.68924 4.54486 9.6365C4.49212 9.58375 4.46249 9.51222 4.46249 9.43762C4.46249 9.36303 4.49212 9.2915 4.54486 9.23875C4.59761 9.18601 4.66915 9.15637 4.74374 9.15637H13.0483C13.1229 9.15637 13.1944 9.18601 13.2472 9.23875C13.2999 9.2915 13.3296 9.36303 13.3296 9.43762ZM13.3296 11.5108C13.3296 11.5854 13.2999 11.6569 13.2472 11.7097C13.1944 11.7624 13.1229 11.792 13.0483 11.792H4.74374C4.66915 11.792 4.59761 11.7624 4.54486 11.7097C4.49212 11.6569 4.46249 11.5854 4.46249 11.5108C4.46249 11.4362 4.49212 11.3647 4.54486 11.3119C4.59761 11.2592 4.66915 11.2295 4.74374 11.2295H13.0483C13.1229 11.2295 13.1944 11.2592 13.2472 11.3119C13.2999 11.3647 13.3296 11.4362 13.3296 11.5108ZM14.4823 14.8584C14.5268 14.8583 14.5695 14.8406 14.601 14.8091C14.6325 14.7776 14.6502 14.7349 14.6503 14.6904V4.65005H11.2936C11.0999 4.64979 10.9143 4.57273 10.7773 4.43578C10.6404 4.29884 10.5633 4.11317 10.5631 3.9195V0.5625H3.30957C3.26505 0.562593 3.22238 0.58032 3.1909 0.611802C3.15942 0.643283 3.14169 0.685955 3.1416 0.730477V14.6904C3.14167 14.7349 3.15939 14.7776 3.19088 14.8091C3.22236 14.8406 3.26504 14.8583 3.30957 14.8584H14.4823ZM11.0434 0.0822305C10.9905 0.0295494 10.9189 -2.32999e-05 10.8443 1.37741e-08H3.30957C3.1159 0.000204751 2.93022 0.0772312 2.79328 0.214178C2.65633 0.351124 2.5793 0.536805 2.5791 0.730477V2.57903H0.730687C0.536973 2.57918 0.351233 2.65618 0.21424 2.79314C0.0772468 2.9301 0.00019552 3.11582 0 3.30954V17.2694C0.000167596 17.4631 0.0772066 17.6489 0.214203 17.7858C0.351199 17.9228 0.536955 17.9999 0.730687 18H11.9033C12.097 17.9998 12.2827 17.9227 12.4197 17.7858C12.5566 17.6488 12.6336 17.4631 12.6338 17.2694V15.4209H14.4823C14.676 15.4207 14.8617 15.3436 14.9986 15.2067C15.1355 15.0697 15.2126 14.8841 15.2128 14.6904V4.36883C15.2128 4.29422 15.1832 4.22263 15.1305 4.16981L11.0434 0.0822305Z" fill="#5B6B79"/>
</svg>
