<svg width="37" height="37" viewBox="0 0 37 37" fill="none" xmlns="http://www.w3.org/2000/svg">
<path d="M18.2951 0C8.19936 0 0 8.20544 0 18.2951C0 28.3847 8.19936 36.5841 18.2951 36.5841C28.3847 36.5841 36.5841 28.3847 36.5841 18.2951C36.5841 8.20544 28.3847 0 18.2951 0ZM23.4979 25.4551C22.72 26.4276 21.6806 27.0841 20.4407 27.4062C19.918 27.5399 19.7234 27.862 19.7234 28.3847V30.0137C19.7234 30.5303 19.4621 30.7916 19.0062 30.7916H17.2497C16.733 30.7916 16.4716 30.5303 16.4716 30.0137V28.8406C16.4716 27.9958 16.4716 27.9289 15.6207 27.7952C14.5145 27.6006 13.4751 27.3393 12.4966 26.8834C11.7186 26.4944 11.6517 26.3 11.8462 25.522C12.0408 24.8655 12.1745 24.282 12.3689 23.6985C12.5634 22.9813 12.7579 22.9144 13.4083 23.2427C14.5145 23.8261 15.6207 24.1544 16.8607 24.282C17.6387 24.3489 18.4228 24.282 19.1399 23.9538C20.4407 23.3703 20.6351 21.8082 19.529 20.8965C19.1399 20.5744 18.6841 20.313 18.2282 20.1185C17.0552 19.5958 15.8213 19.2068 14.7151 18.5565C12.9525 17.5111 11.7855 16.0158 11.9131 13.8034C12.0408 11.3295 13.4751 9.76748 15.7544 8.91653C16.733 8.59437 16.733 8.59437 16.733 7.61588V6.64333C16.7938 5.85923 16.9275 5.73161 17.6387 5.73161H18.3558C19.918 5.73161 19.918 5.73161 19.918 7.29373C19.918 8.39991 19.918 8.39991 21.0242 8.59437C21.8751 8.72207 22.72 8.98346 23.4979 9.31162C23.9538 9.50609 24.0875 9.82825 23.9538 10.2841C23.7594 10.9345 23.5648 11.6517 23.3703 12.3021C23.1758 12.9525 22.9144 13.0862 22.3309 12.7579C21.091 12.1745 19.7903 11.9131 18.4228 11.9799C18.0337 11.9799 17.7055 12.0468 17.3834 12.1745C16.2103 12.6971 16.0158 13.9979 16.9883 14.7759C17.5111 15.2318 18.0945 15.4931 18.6841 15.7544C19.7234 16.1435 20.7688 16.5993 21.7414 17.122C24.8655 18.8786 25.7165 22.8476 23.4979 25.4551Z" fill="#FBC52A"/>
</svg>
