<svg width="18" height="17" viewBox="0 0 18 17" fill="none" xmlns="http://www.w3.org/2000/svg">
<path d="M5.05431 5.71206C5.56368 6.22143 6.07306 6.7308 6.58444 7.24218C7.39663 8.05437 8.20882 8.86656 9.02101 9.67875C9.20751 9.86526 9.39201 10.0498 9.57851 10.2363C9.10523 10.2363 8.63396 10.2363 8.16069 10.2363C8.67006 9.72688 9.17943 9.21751 9.69081 8.70613L12.1274 6.26956C12.3139 6.08306 12.4984 5.89856 12.6849 5.71206C12.8674 5.52956 13.1361 5.41927 13.3948 5.41927C13.6415 5.41927 13.9343 5.52756 14.1047 5.71206C14.2792 5.90257 14.4095 6.15325 14.3975 6.42197C14.3855 6.68869 14.2952 6.93937 14.1047 7.13189C13.5953 7.64126 13.086 8.15063 12.5746 8.66201C11.7624 9.4742 10.9502 10.2864 10.138 11.0986C9.95152 11.2851 9.76702 11.4696 9.58052 11.6561C9.19748 12.0391 8.54573 12.0391 8.16269 11.6561C7.65332 11.1467 7.14395 10.6373 6.63257 10.126C5.82038 9.31377 5.00819 8.50158 4.196 7.68939C4.00949 7.50289 3.825 7.31839 3.63849 7.13189C3.456 6.94939 3.3457 6.68067 3.3457 6.42197C3.3457 6.17531 3.454 5.88252 3.63849 5.71206C3.82901 5.53759 4.07968 5.40723 4.34841 5.41927C4.61112 5.4313 4.86179 5.52154 5.05431 5.71206Z" fill="#5B6B79"/>
<path d="M9.86941 1.00342C9.86941 1.33431 9.86941 1.66521 9.86941 1.9961C9.86941 2.78623 9.86941 3.57636 9.86941 4.36649C9.86941 5.32508 9.86941 6.28366 9.86941 7.24425C9.86941 8.07048 9.86941 8.89671 9.86941 9.72293C9.86941 10.124 9.87543 10.5271 9.86941 10.9282C9.86941 10.9342 9.86941 10.9402 9.86941 10.9462C9.86941 11.2029 9.75711 11.4737 9.57662 11.6561C9.40215 11.8306 9.11738 11.961 8.86671 11.9489C8.60801 11.9369 8.33928 11.8527 8.15679 11.6561C7.9763 11.4596 7.864 11.219 7.864 10.9462V9.95356V7.58316V4.7054V2.22672C7.864 1.82564 7.85799 1.42255 7.864 1.02147V1.00342C7.864 0.74673 7.9763 0.475999 8.15679 0.293507C8.33126 0.119037 8.61603 -0.0113144 8.86671 0.000718117C9.1254 0.0127506 9.39413 0.0969772 9.57662 0.293507C9.7551 0.490037 9.86941 0.730686 9.86941 1.00342Z" fill="#5B6B79"/>
<path d="M15.7173 12.1456V13.3328V13.9705C15.7173 14.1389 15.7293 14.3154 15.7072 14.4819C15.7193 14.3936 15.7313 14.3034 15.7433 14.2151C15.7293 14.3054 15.7052 14.3916 15.6711 14.4758C15.7052 14.3956 15.7393 14.3154 15.7714 14.2372C15.7353 14.3194 15.6912 14.3936 15.6371 14.4658C15.6892 14.3976 15.7413 14.3315 15.7935 14.2633C15.7373 14.3335 15.6772 14.3936 15.607 14.4498C15.6752 14.3976 15.7413 14.3455 15.8095 14.2934C15.7373 14.3475 15.6631 14.3916 15.5809 14.4277C15.6611 14.3936 15.7413 14.3595 15.8195 14.3274C15.7353 14.3615 15.6491 14.3856 15.5588 14.3996C15.6471 14.3876 15.7373 14.3756 15.8256 14.3635C15.6691 14.3836 15.5067 14.3736 15.3503 14.3736C15.0214 14.3736 14.6925 14.3736 14.3636 14.3736C13.8743 14.3736 13.383 14.3736 12.8937 14.3736C12.292 14.3736 11.6924 14.3736 11.0908 14.3736C10.431 14.3736 9.77124 14.3736 9.11346 14.3736C8.44366 14.3736 7.77586 14.3736 7.10605 14.3736C6.48638 14.3736 5.86671 14.3736 5.24704 14.3736C4.72563 14.3736 4.20222 14.3736 3.68081 14.3736C3.30781 14.3736 2.93681 14.3736 2.5638 14.3736C2.39334 14.3736 2.22288 14.3736 2.05242 14.3736C2.00028 14.3736 1.95015 14.3696 1.89801 14.3635C1.98625 14.3756 2.07649 14.3876 2.16473 14.3996C2.07448 14.3856 1.98825 14.3615 1.90402 14.3274C1.98424 14.3615 2.06446 14.3956 2.14267 14.4277C2.06045 14.3916 1.98625 14.3475 1.91405 14.2934C1.98223 14.3455 2.04841 14.3976 2.1166 14.4498C2.04641 14.3936 1.98625 14.3335 1.93009 14.2633C1.98223 14.3315 2.03437 14.3976 2.08652 14.4658C2.03237 14.3936 1.98825 14.3194 1.95215 14.2372C1.98625 14.3174 2.02034 14.3976 2.05242 14.4758C2.01833 14.3916 1.99427 14.3054 1.98023 14.2151C1.99226 14.3034 2.00429 14.3936 2.01633 14.4819C1.99828 14.3415 2.0063 14.1971 2.0063 14.0567C2.0063 13.788 2.0063 13.5193 2.0063 13.2505C2.0063 12.6289 2.0063 13.2084 2.0063 12.5868C2.0063 12.4404 2.0063 12.292 2.0063 12.1456C2.0063 11.8889 1.894 11.6181 1.71351 11.4357C1.53904 11.2612 1.25427 11.1308 1.0036 11.1429C0.744898 11.1549 0.476173 11.2391 0.293681 11.4357C0.113194 11.6322 0.000891292 11.8728 0.000891292 12.1456V13.3348C0.000891292 13.6657 -0.00111412 13.9946 0.000891292 14.3254C0.000891292 14.4939 0.0249562 14.6664 0.0610535 14.8308C0.133248 15.1617 0.311729 15.4465 0.526308 15.7012C0.891292 16.1363 1.47487 16.369 2.03437 16.375C2.35524 16.379 2.67811 16.375 2.99898 16.375H5.37137H8.46572H11.6403H14.2453H15.611H15.6812C16.0181 16.371 16.3109 16.2887 16.6117 16.1464C16.724 16.0922 16.8182 16.022 16.9165 15.9438C17.0228 15.8616 17.1191 15.7834 17.2033 15.6791C17.4118 15.4204 17.5943 15.1356 17.6585 14.8027C17.6886 14.6443 17.7127 14.4799 17.7127 14.3174C17.7127 14.1991 17.7127 14.0808 17.7127 13.9625C17.7127 13.0279 17.7127 13.2987 17.7127 12.3642C17.7127 12.292 17.7127 12.2178 17.7127 12.1456C17.7127 11.8889 17.6004 11.6181 17.4199 11.4357C17.2454 11.2612 16.9606 11.1308 16.7099 11.1429C16.4513 11.1549 16.1825 11.2391 16 11.4357C15.8316 11.6322 15.7173 11.8728 15.7173 12.1456Z" fill="#5B6B79"/>
</svg>
