<svg width="15" height="15" viewBox="0 0 15 15" fill="none" xmlns="http://www.w3.org/2000/svg">
<path d="M12.4021 8.1623V12.9917C12.4021 13.9384 11.6319 14.7086 10.6852 14.7086H1.71606C0.769845 14.7086 0 13.9384 0 12.9917V4.02337C0 3.07667 0.769816 2.30648 1.71606 2.30648H6.54549C6.79934 2.30648 7.00513 2.51227 7.00513 2.76611C7.00513 3.01996 6.79934 3.22575 6.54549 3.22575H1.71606C1.27674 3.22575 0.919304 3.58356 0.919304 4.02334V12.9917C0.919304 13.4315 1.27674 13.7893 1.71606 13.7893H10.6852C11.125 13.7893 11.4828 13.4315 11.4828 12.9917V8.1623C11.4828 7.90845 11.6886 7.70266 11.9424 7.70266C12.1963 7.70266 12.4021 7.90842 12.4021 8.1623ZM13.975 0.733579C12.9966 -0.244526 11.4053 -0.244526 10.4269 0.733579L4.41604 6.74354L5.0661 7.3936L7.31387 9.64195L7.96393 10.2917L13.9748 4.2809C14.4473 3.80894 14.7075 3.17899 14.7075 2.5071C14.7075 1.8352 14.4473 1.20554 13.975 0.733579ZM3.30292 11.4048C3.38996 11.4919 3.50745 11.5396 3.6281 11.5396C3.65998 11.5396 3.69215 11.5361 3.72404 11.5292L7.16536 10.7933L6.39092 10.0191L4.68864 8.31655L3.91449 7.54211L3.17854 10.9837C3.14579 11.136 3.19262 11.2946 3.30292 11.4048Z" fill="#5B6B79"/>
</svg>
