<svg width="20" height="20" viewBox="0 0 20 20" fill="none" xmlns="http://www.w3.org/2000/svg">
<path d="M15.7143 0H14.2857C13.8912 0 13.5714 0.319824 13.5714 0.714286C13.5714 1.02147 13.7675 1.27799 14.0397 1.37887L12.1429 3.27567L11.2193 2.35212C10.9403 2.0731 10.4883 2.0731 10.2093 2.35212L7.35212 5.20926C7.0731 5.48828 7.0731 5.94029 7.35212 6.21931C7.49163 6.35882 7.67438 6.42857 7.85714 6.42857C8.0399 6.42857 8.22265 6.35882 8.36216 6.21931L10.7143 3.86719L11.6378 4.79074C11.9168 5.06975 12.3689 5.06975 12.6479 4.79074L15.0497 2.38892C15.1506 2.66105 15.4071 2.85714 15.7143 2.85714C16.1087 2.85714 16.4286 2.53732 16.4286 2.14286V0.714286C16.4286 0.319824 16.1087 0 15.7143 0Z" fill="#5B6B79"/>
<path d="M9.28573 11.4286C9.28573 9.9649 8.40316 8.71027 7.14287 8.15869V9.64289C7.14287 9.8403 6.98314 10 6.78573 10C6.58833 10 6.42859 9.8403 6.42859 9.64289V7.92916C6.19774 7.88229 5.95897 7.85718 5.7143 7.85718C5.46964 7.85718 5.23086 7.88229 5.00002 7.92916V9.64289C5.00002 9.8403 4.84028 10 4.64287 10C4.44547 10 4.28573 9.8403 4.28573 9.64289V8.15869C3.02544 8.71027 2.14287 9.9649 2.14287 11.4286C1.74841 11.4286 1.42859 11.7484 1.42859 12.1429C1.42859 12.5374 1.74841 12.8572 2.14287 12.8572H9.28573C9.68019 12.8572 10 12.5374 10 12.1429C10 11.7484 9.68019 11.4286 9.28573 11.4286Z" fill="#5B6B79"/>
<path d="M3.57144 17.1429H7.85716V20H3.57144V17.1429Z" fill="#5B6B79"/>
<path d="M0 20H2.85714V17.1429C1.27921 17.1429 0 18.422 0 20Z" fill="#5B6B79"/>
<path d="M8.57144 17.1429V20H11.4286C11.4286 18.422 10.1494 17.1429 8.57144 17.1429Z" fill="#5B6B79"/>
<path d="M2.85715 13.5714V14.2857C2.85715 15.8636 4.13636 17.1428 5.71429 17.1428C7.29227 17.1428 8.57143 15.8636 8.57143 14.2857V13.5714H2.85715Z" fill="#5B6B79"/>
<path d="M19.2857 9.99997H17.1429V2.49997C17.1429 2.30272 17.3028 2.14282 17.5 2.14282H18.9286C19.1258 2.14282 19.2857 2.30272 19.2857 2.49997V9.99997Z" fill="#5B6B79"/>
<path d="M16.4286 9.99999H14.2857V4.64285C14.2857 4.4456 14.4456 4.28571 14.6428 4.28571H16.0714C16.2687 4.28571 16.4286 4.4456 16.4286 4.64285V9.99999Z" fill="#5B6B79"/>
<path d="M13.5714 10H11.4286V6.78573C11.4286 6.58849 11.5885 6.42859 11.7857 6.42859H13.2143C13.4115 6.42859 13.5714 6.58849 13.5714 6.78573V10Z" fill="#5B6B79"/>
<path d="M15.3571 10.7142C12.7929 10.7142 10.7143 12.7929 10.7143 15.3571C10.7143 17.9213 12.7929 19.9999 15.3571 19.9999C17.9213 19.9999 20 17.9213 20 15.3571C20 12.7929 17.9213 10.7142 15.3571 10.7142ZM15.3571 14.9999C16.3421 14.9999 17.1428 15.8011 17.1428 16.7857C17.1428 17.648 16.5285 18.3693 15.7143 18.5352V18.9285C15.7143 19.1259 15.5545 19.2857 15.3571 19.2857C15.1597 19.2857 15 19.1259 15 18.9285V18.5352C14.1857 18.3693 13.5714 17.648 13.5714 16.7857C13.5714 16.5883 13.7311 16.4285 13.9285 16.4285C14.126 16.4285 14.2857 16.5883 14.2857 16.7857C14.2857 17.3765 14.7663 17.8571 15.3571 17.8571C15.9479 17.8571 16.4285 17.3765 16.4285 16.7857C16.4285 16.1948 15.9479 15.7142 15.3571 15.7142C14.3722 15.7142 13.5714 14.9131 13.5714 13.9285C13.5714 13.0662 14.1857 12.3449 15 12.1789V11.7857C15 11.5883 15.1597 11.4285 15.3571 11.4285C15.5545 11.4285 15.7143 11.5883 15.7143 11.7857V12.1789C16.5285 12.3449 17.1428 13.0662 17.1428 13.9285C17.1428 14.1259 16.9831 14.2857 16.7857 14.2857C16.5883 14.2857 16.4285 14.1259 16.4285 13.9285C16.4285 13.3377 15.9479 12.8571 15.3571 12.8571C14.7663 12.8571 14.2857 13.3377 14.2857 13.9285C14.2857 14.5193 14.7663 14.9999 15.3571 14.9999Z" fill="#5B6B79"/>
</svg>
