<svg width="20" height="20" viewBox="0 0 20 20" fill="none" xmlns="http://www.w3.org/2000/svg">
<path d="M6.42856 8.57141H3.57142C3.35448 8.57141 3.1494 8.67011 3.01338 8.83962L0.370819 12.1428H7.14284V9.2857C7.14284 8.89124 6.82337 8.57141 6.42856 8.57141Z" fill="#5B6B79"/>
<path d="M2.14286 4.28571C3.07281 4.28571 3.85829 3.68678 4.1541 2.85714H7.9888C8.28461 3.68678 9.07004 4.28571 10 4.28571C10.93 4.28571 11.7154 3.68678 12.0112 2.85714H15.8459C16.1418 3.68678 16.9272 4.28571 17.8571 4.28571C19.0388 4.28571 20 3.3245 20 2.14286C20 0.961216 19.0388 0 17.8571 0C16.9272 0 16.1417 0.598929 15.8459 1.42857H12.0112C11.7154 0.598929 10.93 0 10 0C9.07004 0 8.28456 0.598929 7.98876 1.42857H4.1541C3.85829 0.598929 3.07281 0 2.14286 0C0.961217 0 0 0.961216 0 2.14286C0 3.3245 0.961217 4.28571 2.14286 4.28571Z" fill="#5B6B79"/>
<path d="M19.2857 6.42859H8.57143C8.17693 6.42859 7.85715 6.74837 7.85715 7.14287V17.8572H13.5714C13.5714 19.0388 14.5326 20 15.7143 20C16.8959 20 17.8571 19.0388 17.8571 17.8572H19.2857C19.6802 17.8572 20 17.5374 20 17.1429V7.14287C20 6.74837 19.6802 6.42859 19.2857 6.42859ZM15.7143 18.5714C15.3202 18.5714 15 18.2509 15 17.8572C15 17.4634 15.3202 17.1429 15.7143 17.1429C16.1084 17.1429 16.4286 17.4634 16.4286 17.8572C16.4286 18.2509 16.1084 18.5714 15.7143 18.5714ZM17.8571 13.5714C17.8571 13.8421 17.7044 14.0894 17.4623 14.2104L14.6052 15.639C14.5047 15.6892 14.3952 15.7143 14.2857 15.7143C14.1762 15.7143 14.0667 15.6892 13.9662 15.639L11.1091 14.2104C10.8671 14.0894 10.7143 13.8421 10.7143 13.5714V10C10.7143 9.72937 10.8671 9.48209 11.1091 9.36107L13.9662 7.93249C14.1671 7.83205 14.4043 7.83205 14.6052 7.93249L17.4623 9.36107C17.7044 9.48209 17.8571 9.72937 17.8571 10V13.5714Z" fill="#5B6B79"/>
<path d="M0 17.1428C0 17.5373 0.319781 17.8571 0.714286 17.8571H2.14286C2.14286 19.0388 3.10407 20 4.28571 20C5.46735 20 6.42857 19.0388 6.42857 17.8571H7.14286V12.8571H0V17.1428ZM4.28571 17.1428C4.67983 17.1428 5 17.4634 5 17.8571C5 18.2509 4.67983 18.5714 4.28571 18.5714C3.8916 18.5714 3.57143 18.2509 3.57143 17.8571C3.57143 17.4634 3.8916 17.1428 4.28571 17.1428Z" fill="#5B6B79"/>
<path d="M14.2857 8.61255L11.8539 9.81328L14.2857 11.0292L16.7175 9.81328L14.2857 8.61255Z" fill="#5B6B79"/>
<path d="M11.4286 13.5481L13.9286 14.7825V11.6494L11.4286 10.3994V13.5481Z" fill="#5B6B79"/>
<path d="M14.6429 14.7825L17.1429 13.5481V10.3994L14.6429 11.6494V14.7825Z" fill="#5B6B79"/>
</svg>
