<svg width="22" height="22" viewBox="0 0 22 22" fill="none" xmlns="http://www.w3.org/2000/svg">
<path d="M1.17857 0C0.532319 0 0 0.532319 0 1.17857V20.8213C0 21.4676 0.532319 21.9999 1.17857 21.9999H11.3928C12.022 21.9999 12.5389 21.4943 12.566 20.8712C11.0318 20.3244 9.78772 19.1615 9.1377 17.6785H2.74987C2.64568 17.6785 2.54575 17.6371 2.47208 17.5634C2.39841 17.4898 2.35702 17.3898 2.35702 17.2856C2.35702 17.1815 2.39841 17.0815 2.47208 17.0079C2.54575 16.9342 2.64568 16.8928 2.74987 16.8928H8.86231C8.72336 16.3917 8.64287 15.8662 8.64287 15.3214C8.64287 14.9178 8.68342 14.5238 8.76103 14.1428H2.74995C2.64575 14.1428 2.54583 14.1014 2.47215 14.0277C2.39848 13.9541 2.35709 13.8541 2.35709 13.7499C2.35709 13.6458 2.39848 13.5458 2.47215 13.4722C2.54583 13.3985 2.64575 13.3571 2.74995 13.3571H8.98653C9.57935 11.6872 10.9033 10.3636 12.5713 9.76996V1.17861C12.5713 0.532359 12.039 3.93389e-05 11.3928 3.93389e-05L1.17857 0ZM6.28569 2.74999C6.50266 2.74999 6.67854 2.92588 6.67854 3.14284V3.1697C8.09612 3.34808 9.22331 4.47528 9.40166 5.89282H9.42852C9.64548 5.89282 9.82137 6.06871 9.82137 6.28567C9.82137 6.50264 9.64548 6.67853 9.42852 6.67853H3.14283C2.92586 6.67853 2.74997 6.50264 2.74997 6.28567C2.74997 6.06871 2.92586 5.89282 3.14283 5.89282H3.16968C3.34806 4.47524 4.47526 3.34806 5.8928 3.1697V3.14284C5.8928 2.92588 6.06872 2.74999 6.28569 2.74999ZM2.74999 9.82139H4.32141C4.4256 9.82139 4.52553 9.86278 4.5992 9.93645C4.67288 10.0101 4.71427 10.1101 4.71427 10.2142C4.71427 10.3184 4.67288 10.4184 4.5992 10.492C4.52553 10.5657 4.4256 10.6071 4.32141 10.6071H2.74999C2.6458 10.6071 2.54587 10.5657 2.4722 10.492C2.39852 10.4184 2.35713 10.3184 2.35713 10.2142C2.35713 10.1101 2.39852 10.0101 2.4722 9.93645C2.54587 9.86278 2.6458 9.82139 2.74999 9.82139Z" fill="#5B6B79"/>
<path d="M19.8086 12.7057C20.2017 13.4951 20.4285 14.3812 20.4285 15.3214C20.4285 18.5713 17.7856 21.2143 14.5357 21.2143C14.4059 21.2143 14.279 21.2026 14.1513 21.1943C14.9444 21.7016 15.8836 22 16.8928 22C19.7088 22 21.9999 19.7088 21.9999 16.8929C21.9999 15.1608 21.1312 13.6296 19.8086 12.7057Z" fill="#5B6B79"/>
<path d="M14.5357 10.2142C11.7197 10.2142 9.42854 12.5054 9.42854 15.3214C9.42854 18.1373 11.7197 20.4285 14.5357 20.4285C17.3516 20.4285 19.6428 18.1373 19.6428 15.3214C19.6428 12.5054 17.3516 10.2142 14.5357 10.2142ZM14.5357 11.7857C14.6398 11.7857 14.7398 11.8271 14.8134 11.9007C14.8871 11.9744 14.9285 12.0743 14.9285 12.1785V12.5714H15.7142C15.8184 12.5714 15.9183 12.6128 15.992 12.6864C16.0657 12.7601 16.1071 12.86 16.1071 12.9642C16.1071 13.0684 16.0657 13.1684 15.992 13.242C15.9183 13.3157 15.8184 13.3571 15.7142 13.3571H14.9285V14.9285C15.7917 14.9285 16.4999 15.6367 16.4999 16.4999C16.4999 17.3632 15.7917 18.0714 14.9285 18.0714V18.4642C14.9285 18.5684 14.8871 18.6683 14.8134 18.742C14.7398 18.8157 14.6398 18.8571 14.5357 18.8571C14.4315 18.8571 14.3315 18.8157 14.2579 18.742C14.1842 18.6683 14.1428 18.5684 14.1428 18.4642V18.0714H13.3571C13.2529 18.0714 13.153 18.03 13.0793 17.9563C13.0056 17.8826 12.9642 17.7827 12.9642 17.6785C12.9642 17.5743 13.0056 17.4744 13.0793 17.4007C13.153 17.327 13.2529 17.2856 13.3571 17.2856H14.1428V15.7142C13.2796 15.7142 12.5714 15.006 12.5714 14.1428C12.5714 13.2796 13.2796 12.5714 14.1428 12.5714V12.1785C14.1428 12.0743 14.1842 11.9744 14.2579 11.9007C14.3315 11.8271 14.4315 11.7857 14.5357 11.7857ZM14.1428 13.3571C13.7042 13.3571 13.3571 13.7042 13.3571 14.1428C13.3571 14.5814 13.7042 14.9285 14.1428 14.9285V13.3571ZM14.9285 15.7142V17.2856C15.3671 17.2856 15.7142 16.9385 15.7142 16.4999C15.7142 16.0613 15.3671 15.7142 14.9285 15.7142Z" fill="#5B6B79"/>
</svg>
