<svg width="15" height="18" viewBox="0 0 15 18" fill="none" xmlns="http://www.w3.org/2000/svg">
<path fill-rule="evenodd" clip-rule="evenodd" d="M0 7.11098C0 3.17848 3.28619 0 7.26118 0C11.2474 0 14.5336 3.17848 14.5336 7.11098C14.5336 9.09262 13.8129 10.9323 12.6267 12.4917C11.3181 14.2117 9.70514 15.7103 7.88963 16.8867C7.47411 17.1585 7.09911 17.179 6.64308 16.8867C4.81722 15.7103 3.2043 14.2117 1.90689 12.4917C0.719825 10.9323 0 9.09262 0 7.11098ZM4.86902 7.33284C4.86902 8.65022 5.94401 9.68635 7.26211 9.68635C8.58107 9.68635 9.66641 8.65022 9.66641 7.33284C9.66641 6.02571 8.58107 4.93914 7.26211 4.93914C5.94401 4.93914 4.86902 6.02571 4.86902 7.33284Z" fill="#FBC52A"/>
</svg>
