<svg width="21" height="23" viewBox="0 0 21 23" fill="none" xmlns="http://www.w3.org/2000/svg">
<path d="M2.0351 17.3247C2.32886 18.8887 3.37243 20.1982 4.82998 20.8334L8.50097 22.6579C8.51734 22.6661 8.53348 22.6731 8.54985 22.6803C9.0293 22.8859 9.54431 22.9888 10.0591 22.9888C10.5741 22.9888 11.0889 22.8864 11.5683 22.6803C11.5847 22.6731 11.6011 22.6656 11.6172 22.6579L15.2882 20.8334C16.7457 20.1982 17.79 18.8887 18.0875 17.3022L20.0848 5.04269C20.184 4.51389 20.0547 3.9638 19.7298 3.53416C19.4052 3.10499 18.9112 2.83065 18.3843 2.7827L15.6848 2.51023C15.0038 2.44849 14.3548 2.24805 13.7871 1.93348L10.9888 0.240184C10.4059 -0.0830391 9.71036 -0.0830392 9.09736 0.258427L6.36096 1.91571C5.67826 2.29506 5.3396 2.45457 4.73385 2.51023L1.74252 2.78177C1.20599 2.83065 0.71274 3.10499 0.387412 3.53416C0.0655922 3.96052 -0.0642116 4.50476 0.0300423 5.02959L2.0351 17.3247ZM4.90856 4.41753C5.90092 4.32748 6.5228 4.01759 7.32361 3.57205L10.0595 1.91524L12.8268 3.58982C13.6597 4.05291 14.5632 4.33122 15.5024 4.41659L18.1977 4.71151L16.2003 16.9713C16.023 17.9155 15.3902 18.7053 14.5075 19.0837C14.4911 19.0907 14.475 19.0985 14.4586 19.1062L10.7916 20.9286C10.3245 21.1218 9.79386 21.1218 9.3268 20.9286L5.65955 19.1062C5.64341 19.098 5.62704 19.0907 5.61067 19.0837C4.728 18.7053 4.09465 17.916 3.92182 16.9942L1.92073 4.71198C1.9191 4.7045 1.91816 4.69725 1.91676 4.68953L4.90856 4.41753Z" fill="white"/>
<path d="M10.0595 14.3685C10.5883 14.3685 11.0175 13.9393 11.0175 13.4105V6.70465C11.0175 6.17584 10.5883 5.74667 10.0595 5.74667C9.53073 5.74667 9.10156 6.17584 9.10156 6.70465V13.4105C9.10156 13.9393 9.53073 14.3685 10.0595 14.3685Z" fill="white"/>
<path d="M10.0595 19.1583C10.5883 19.1583 11.0175 18.7291 11.0175 18.2003V17.2424C11.0175 16.7136 10.5883 16.2844 10.0595 16.2844C9.53073 16.2844 9.10156 16.7136 9.10156 17.2424V18.2003C9.10156 18.7291 9.53073 19.1583 10.0595 19.1583Z" fill="white"/>
</svg>
