<svg width="33" height="33" viewBox="0 0 33 33" fill="none" xmlns="http://www.w3.org/2000/svg">
<g clip-path="url(#clip0_128_9922)">
<path d="M15.7119 14.6677C15.7119 14.9448 15.9604 15.1169 16.3235 15.2697V14.1326C15.8935 14.2186 15.7119 14.4384 15.7119 14.6677Z" fill="#6D6D6D"/>
<path d="M16.8589 17.0376V18.3181C17.1838 18.2416 17.4418 18.0601 17.4418 17.7161C17.4418 17.4008 17.2029 17.2001 16.8589 17.0376Z" fill="#6D6D6D"/>
<path d="M16.5004 8.14798C11.8948 8.14798 8.14795 11.8949 8.14795 16.5003C8.14795 21.106 11.8949 24.8528 16.5004 24.8528C21.1059 24.8528 24.8528 21.1059 24.8528 16.5003C24.8528 11.8948 21.106 8.14798 16.5004 8.14798ZM16.9544 19.6464V19.9236C16.9544 20.0573 16.7728 20.1817 16.5913 20.1817C16.381 20.1817 16.2281 20.0575 16.2281 19.9236V19.6847C15.0814 19.6464 14.1449 19.0539 14.1449 18.4424C14.1449 18.1174 14.4316 17.6397 14.7947 17.6397C15.196 17.6397 15.5209 18.2035 16.2281 18.3278V16.7798C15.3489 16.4453 14.3168 16.0344 14.3168 14.8112C14.3168 13.5976 15.2151 13.0147 16.2281 12.8713V12.6038C16.2281 12.47 16.3809 12.3457 16.5912 12.3457C16.7728 12.3457 16.9543 12.4699 16.9543 12.6038V12.8427C17.5468 12.8618 18.6649 13.0147 18.6649 13.6741C18.6649 13.9321 18.4929 14.4577 18.0725 14.4577C17.7572 14.4577 17.5755 14.1519 16.9543 14.1041V15.4993C17.8239 15.8242 18.8369 16.2733 18.8369 17.5634C18.8369 18.7482 18.0725 19.4649 16.9544 19.6464Z" fill="#6D6D6D"/>
<path d="M27.5934 2.40444C27.593 2.40405 27.5927 2.40373 27.5923 2.40334L25.4992 0.32028C25.0686 -0.108206 24.3721 -0.106594 23.9436 0.324147C23.5151 0.754759 23.5168 1.45124 23.9474 1.87979L24.1514 2.08295H6.18401C5.57654 2.08295 5.08398 2.57543 5.08398 3.18297C5.08398 3.79051 5.57654 4.28293 6.18401 4.28293H24.1516L23.9474 4.48615C23.5168 4.9147 23.515 5.61125 23.9436 6.04186C24.372 6.47234 25.0685 6.47428 25.4992 6.04566L27.5923 3.96279C27.5927 3.9624 27.5929 3.96208 27.5933 3.96169C28.0236 3.53231 28.0241 2.83415 27.5934 2.40444Z" fill="#6D6D6D"/>
<path d="M26.8158 28.7173H8.84825L9.05243 28.5141C9.48305 28.0855 9.48479 27.389 9.05624 26.9583C8.62769 26.5278 7.9312 26.526 7.50059 26.9545L5.40754 29.0375C5.40715 29.0379 5.40689 29.0382 5.40651 29.0386C4.97686 29.4674 4.97544 30.1657 5.40651 30.5958C5.40689 30.5962 5.40715 30.5965 5.40754 30.5969L7.50059 32.6797C7.93114 33.1082 8.62775 33.1066 9.05624 32.6759C9.48472 32.2453 9.48305 31.5488 9.05243 31.1202L8.84837 30.9171H26.8159C27.4234 30.9171 27.9159 30.4246 27.9159 29.817C27.9159 29.2095 27.4233 28.7173 26.8158 28.7173Z" fill="#6D6D6D"/>
</g>
<defs>
<clipPath id="clip0_128_9922">
<rect width="33" height="33" fill="white"/>
</clipPath>
</defs>
</svg>
