<svg width="29" height="29" viewBox="0 0 29 29" fill="none" xmlns="http://www.w3.org/2000/svg">
<path d="M23.0238 17.25L21.8334 15.2738C21.5834 14.8333 21.3572 14 21.3572 13.5119V10.5C21.3572 7.70238 19.7143 5.28571 17.3453 4.15476C16.7262 3.05952 15.5834 2.38095 14.2739 2.38095C12.9762 2.38095 11.8096 3.08333 11.1905 4.19047C8.86909 5.34524 7.26195 7.73809 7.26195 10.5V13.5119C7.26195 14 7.03576 14.8333 6.78576 15.2619L5.58338 17.25C5.10719 18.0476 5.00004 18.9286 5.29766 19.7381C5.58338 20.5357 6.26195 21.1548 7.1429 21.4524C9.45242 22.2381 11.881 22.619 14.3096 22.619C16.7381 22.619 19.1667 22.2381 21.4762 21.4643C22.3096 21.1905 22.9524 20.5595 23.2619 19.7381C23.5715 18.9167 23.4881 18.0119 23.0238 17.25Z" fill="#5B6B79"/>
<path d="M17.6548 23.8214C17.1548 25.2024 15.8334 26.1905 14.2857 26.1905C13.3453 26.1905 12.4167 25.8095 11.7619 25.1309C11.381 24.7738 11.0953 24.2976 10.9286 23.8095C11.0834 23.8333 11.2381 23.8452 11.4048 23.869C11.6786 23.9048 11.9643 23.9405 12.25 23.9643C12.9286 24.0238 13.6191 24.0595 14.3095 24.0595C14.9881 24.0595 15.6667 24.0238 16.3334 23.9643C16.5834 23.9405 16.8334 23.9286 17.0714 23.8929C17.2619 23.869 17.4524 23.8452 17.6548 23.8214Z" fill="#5B6B79"/>
</svg>
