<svg width="41" height="28" viewBox="0 0 41 28" fill="none" xmlns="http://www.w3.org/2000/svg">
<path d="M14.5124 6.38509C14.4644 6.3974 14.417 6.41097 14.3701 6.42578L14.1741 4.75212C14.0471 3.67077 14.4095 2.58901 15.1947 1.70621C15.6762 1.17264 16.2636 0.745333 16.9196 0.451556C17.5755 0.157779 18.2855 0.00398798 19.0042 0H21.6219C23.4724 0 23.9381 0.809244 24.1495 1.60091C24.1887 1.74766 24.2779 1.8761 24.4018 1.96399C25.5898 2.80611 26.7548 4.25054 26.4617 5.77952L26.3315 6.45068C26.2456 6.4205 26.1582 6.39494 26.0697 6.37411C25.9395 5.72622 25.6037 4.98614 25.0281 4.688C24.3934 4.35885 23.6586 4.39864 22.9588 4.80078C22.5069 5.0619 21.2582 4.55341 20.2556 4.14476C18.6251 3.48044 16.9391 2.7935 15.7069 3.62227C14.9876 4.10643 14.5949 5.01349 14.5124 6.38509ZM26.1331 7.79063V9.89409C26.1331 9.9124 26.1319 9.93038 26.1317 9.94869C26.318 9.83691 26.4721 9.67882 26.5792 9.48981C26.6863 9.3008 26.7427 9.08729 26.7428 8.87005C26.7429 8.65281 26.6869 8.43923 26.58 8.25008C26.4732 8.06093 26.3192 7.90265 26.1331 7.79063ZM13.8858 8.86815C13.886 9.08564 13.9423 9.29938 14.0494 9.48869C14.1565 9.678 14.3106 9.83645 14.4969 9.94869C14.4969 9.93038 14.4955 9.9124 14.4955 9.89409V7.79063C14.3097 7.90256 14.156 8.06056 14.0492 8.24933C13.9423 8.4381 13.8861 8.65125 13.8858 8.86815ZM28.7873 20.6899V27.8285H26.3102V22.7514C26.3102 22.5788 26.2416 22.4132 26.1196 22.2911C25.9975 22.169 25.8319 22.1004 25.6592 22.1004C25.4866 22.1004 25.321 22.169 25.1989 22.2911C25.0769 22.4132 25.0083 22.5788 25.0083 22.7514V27.8284H20.1802C20.3529 27.8284 20.5185 27.7598 20.6405 27.6377C20.7626 27.5156 20.8312 27.35 20.8312 27.1774V27.1553C20.8312 26.9826 20.7626 26.817 20.6405 26.695C20.5185 26.5729 20.3529 26.5043 20.1802 26.5043C20.0076 26.5043 19.842 26.5729 19.7199 26.695C19.5978 26.817 19.5293 26.9826 19.5293 27.1553V27.1774C19.5293 27.35 19.5978 27.5156 19.7199 27.6377C19.842 27.7598 20.0076 27.8284 20.1802 27.8284H15.3549V22.7514C15.3549 22.5788 15.2863 22.4132 15.1642 22.2911C15.0421 22.169 14.8765 22.1004 14.7039 22.1004C14.5313 22.1004 14.3657 22.169 14.2436 22.2911C14.1215 22.4132 14.0529 22.5788 14.0529 22.7514V27.8284H11.5732V20.6899C11.5732 18.8567 13.7103 17.7148 16.0754 17.1473L17.2368 21.0078C17.2683 21.1124 17.3257 21.2075 17.4035 21.2841C17.4814 21.3608 17.5773 21.4166 17.6825 21.4465C17.7876 21.4763 17.8985 21.4792 18.0051 21.4549C18.1116 21.4306 18.2103 21.3798 18.2921 21.3073L20.3133 19.5152L22.3366 21.3076C22.4184 21.38 22.5171 21.4307 22.6236 21.455C22.7301 21.4793 22.8411 21.4763 22.9462 21.4465C23.0513 21.4166 23.1472 21.3608 23.225 21.2841C23.3029 21.2074 23.3602 21.1124 23.3917 21.0078L24.5359 17.2041C25.9126 17.5557 27.1687 18.1019 27.9527 18.8665C27.9848 18.9086 28.0219 18.9466 28.0633 18.9797C28.5182 19.4644 28.7873 20.0325 28.7873 20.6899ZM20.8312 24.9412C20.8312 24.7686 20.7626 24.603 20.6405 24.4809C20.5185 24.3588 20.3529 24.2902 20.1802 24.2902C20.0076 24.2902 19.842 24.3588 19.7199 24.4809C19.5978 24.603 19.5293 24.7686 19.5293 24.9412V24.9634C19.5293 25.136 19.5978 25.3016 19.7199 25.4237C19.842 25.5457 20.0076 25.6143 20.1802 25.6143C20.3529 25.6143 20.5185 25.5457 20.6405 25.4237C20.7626 25.3016 20.8312 25.136 20.8312 24.9634V24.9412ZM20.8312 22.7516C20.8312 22.5789 20.7626 22.4134 20.6405 22.2913C20.5185 22.1692 20.3529 22.1006 20.1802 22.1006C20.0076 22.1006 19.842 22.1692 19.7199 22.2913C19.5978 22.4134 19.5293 22.5789 19.5293 22.7516V22.7737C19.5293 22.9464 19.5978 23.1119 19.7199 23.234C19.842 23.3561 20.0076 23.4247 20.1802 23.4247C20.3529 23.4247 20.5185 23.3561 20.6405 23.234C20.7626 23.1119 20.8312 22.9464 20.8312 22.7737V22.7516ZM20.313 14.4097C21.5106 14.4087 22.6588 13.9327 23.5058 13.0861C24.3528 12.2396 24.8294 11.0916 24.8311 9.89409V6.95656C24.8311 6.5065 24.5771 5.92599 24.4296 5.84421C24.3422 5.79897 24.0761 5.66104 23.6094 5.92916C22.6066 6.50869 21.2262 5.94617 19.7649 5.35077C18.8244 4.96759 17.7898 4.546 17.0542 4.546C16.8363 4.53553 16.6203 4.59017 16.4337 4.70297C16.0175 4.98281 15.7975 5.76211 15.7975 6.95656V9.89409C15.7988 11.0913 16.275 12.2391 17.1215 13.0856C17.9681 13.9322 19.1158 14.4084 20.313 14.4097ZM10.5271 12.6644C10.5226 11.7389 10.1518 10.8528 9.49579 10.1999C8.83976 9.54701 7.95188 9.18049 7.02634 9.18049C6.1008 9.18049 5.21292 9.54701 4.55689 10.1999C3.90086 10.8528 3.53006 11.7389 3.5256 12.6644C3.5256 14.5453 4.47562 17.5294 7.02508 17.5294C9.57633 17.5294 10.5271 14.5453 10.5271 12.6644ZM10.7686 18.864C10.5967 18.8424 10.4237 18.8315 10.2505 18.8315H3.8021C1.70564 18.8313 0 20.3935 0 22.3136V27.8285H10.2712V20.6899C10.2696 20.0476 10.4414 19.4168 10.7686 18.864ZM36.5608 18.8315H30.1099C29.9366 18.8315 29.7636 18.8423 29.5917 18.864C29.9188 19.4168 30.0907 20.0475 30.0892 20.6898V27.8285H40.3605V22.3136C40.3605 20.3935 38.656 18.8313 36.5608 18.8313V18.8315ZM36.8349 12.6646C36.8304 11.739 36.4596 10.8529 35.8036 10.2001C35.1475 9.54717 34.2597 9.18066 33.3341 9.18066C32.4086 9.18066 31.5207 9.54717 30.8647 10.2001C30.2086 10.8529 29.8378 11.739 29.8334 12.6646C29.8334 13.8168 30.1644 15.0415 30.7188 15.9408C31.3688 16.9949 32.2491 17.5295 33.3354 17.5295C35.885 17.5294 36.8349 14.5453 36.8349 12.6644V12.6646ZM19.38 18.6026L17.729 16.8443C17.6063 16.8603 17.4832 16.8776 17.3596 16.8965L18.1902 19.6576L19.38 18.6026ZM20.313 15.7117C19.752 15.7117 19.1939 15.6303 18.6563 15.47V15.9298L20.3133 17.6946L21.9723 15.9296V15.4695C21.4338 15.6302 20.8749 15.7117 20.313 15.7117ZM23.257 16.9366C23.1276 16.9149 22.9982 16.895 22.8688 16.8769L21.2466 18.6026L22.4382 19.6581L23.257 16.9366Z" fill="#5DC54F"/>
</svg>
