<svg width="34" height="34" viewBox="0 0 34 34" fill="none" xmlns="http://www.w3.org/2000/svg">
<path d="M30.4125 25.2559C29.8245 24.8185 28.9933 24.9406 28.5559 25.5285C28.3154 25.8518 28.0579 26.169 27.7908 26.4712C27.3055 27.0202 27.357 27.8588 27.906 28.3442C28.1585 28.5673 28.472 28.6769 28.7843 28.6769C29.1513 28.6769 29.5168 28.5255 29.779 28.2289C30.0954 27.871 30.4002 27.4954 30.6851 27.1124C31.1225 26.5245 31.0005 25.6932 30.4125 25.2559Z" fill="#BE68FF"/>
<path d="M32.6315 19.0331C31.9159 18.8773 31.2086 19.3314 31.0528 20.0474C30.967 20.4413 30.8634 20.8359 30.7446 21.2204C30.5282 21.9206 30.9204 22.6635 31.6206 22.8799C31.7511 22.9202 31.8829 22.9393 32.0127 22.9393C32.5793 22.9393 33.1039 22.5735 33.28 22.0037C33.4211 21.5474 33.5441 21.0791 33.6458 20.6119C33.8017 19.8959 33.3476 19.189 32.6315 19.0331Z" fill="#BE68FF"/>
<path d="M24.0258 29.5054C23.6735 29.702 23.3088 29.8858 22.9417 30.0516C22.2739 30.3532 21.977 31.1391 22.2786 31.807C22.5002 32.2977 22.9831 32.5881 23.4886 32.5881C23.6712 32.5881 23.8568 32.5502 24.034 32.4702C24.4694 32.2735 24.9018 32.0556 25.3195 31.8224C25.9594 31.4652 26.1885 30.6569 25.8311 30.017C25.474 29.3773 24.6657 29.1482 24.0258 29.5054Z" fill="#BE68FF"/>
<path d="M15.657 6.36902V16.4345L10.7914 21.3C10.2733 21.8182 10.2733 22.6583 10.7914 23.1765C11.0506 23.4356 11.3901 23.5651 11.7297 23.5651C12.0693 23.5651 12.4089 23.4355 12.668 23.1765L17.9222 17.9223C18.171 17.6735 18.3108 17.3359 18.3108 16.984V6.36902C18.3108 5.63619 17.7168 5.04214 16.9839 5.04214C16.2511 5.04214 15.657 5.63619 15.657 6.36902Z" fill="#BE68FF"/>
<path d="M32.6412 2.85279C31.9084 2.85279 31.3143 3.44683 31.3143 4.17967V7.86414C28.2259 3.02051 22.8323 0 16.984 0C12.4474 0 8.18239 1.76667 4.97447 4.97447C1.76667 8.18239 0 12.4474 0 16.984C0 21.5206 1.76667 25.7857 4.97447 28.9936C8.18239 32.2014 12.4474 33.9681 16.984 33.9681C16.9953 33.9681 17.0061 33.9667 17.0172 33.9664C17.0284 33.9667 17.0392 33.9681 17.0504 33.9681C17.5286 33.9681 18.0115 33.9479 18.4859 33.9082C19.2161 33.8471 19.7585 33.2055 19.6974 32.4753C19.6362 31.745 18.9955 31.2023 18.2644 31.2638C17.8634 31.2973 17.455 31.3143 17.0504 31.3143C17.0392 31.3143 17.0284 31.3157 17.0172 31.316C17.0061 31.3157 16.9953 31.3143 16.984 31.3143C9.08228 31.3143 2.65376 24.8858 2.65376 16.984C2.65376 9.08228 9.08228 2.65376 16.984 2.65376C22.0765 2.65376 26.7603 5.36808 29.3198 9.68621H25.6713C24.9385 9.68621 24.3444 10.2803 24.3444 11.0131C24.3444 11.7459 24.9385 12.34 25.6713 12.34H29.7221C30.5301 12.34 31.2861 12.1129 31.9298 11.7195C31.9712 11.6958 32.011 11.6704 32.049 11.643C33.2037 10.8833 33.9681 9.57654 33.9681 8.09396V4.17967C33.9681 3.44683 33.374 2.85279 32.6412 2.85279Z" fill="#BE68FF"/>
</svg>
