<svg width="21" height="20" viewBox="0 0 21 20" fill="none" xmlns="http://www.w3.org/2000/svg">
<path d="M3.34344 14.0001L2.41677 15.9734L0.343445 16.2934L1.84344 17.8301L1.49011 20L3.34344 18.9734L5.19677 20L4.84344 17.8301L6.34343 16.2934L4.2701 15.9734L3.34344 14.0001Z" fill="#5B6B79"/>
<path d="M17.6034 15.9734L16.6768 14.0001L15.7501 15.9734L13.6768 16.2934L15.1768 17.8301L14.8234 20L16.6768 18.9734L18.5301 20L18.1767 17.8301L19.6767 16.2934L17.6034 15.9734Z" fill="#5B6B79"/>
<path d="M18.8434 7.66668C19.2231 8.23661 19.395 8.91994 19.33 9.60171C19.2651 10.2835 18.9673 10.922 18.4867 11.41C18.3513 11.0898 18.1461 10.8039 17.886 10.5732C17.6259 10.3425 17.3175 10.1729 16.9834 10.0767C17.1413 9.94514 17.2549 9.76814 17.3086 9.56976C17.3624 9.37138 17.3537 9.16126 17.2837 8.96799C17.2138 8.77473 17.086 8.60772 16.9177 8.48968C16.7495 8.37164 16.5489 8.30831 16.3434 8.30831C16.1379 8.30831 15.9373 8.37164 15.7691 8.48968C15.6008 8.60772 15.473 8.77473 15.4031 8.96799C15.3332 9.16126 15.3245 9.37138 15.3782 9.56976C15.4319 9.76814 15.5455 9.94514 15.7034 10.0767C15.3687 10.1725 15.0597 10.3419 14.799 10.5726C14.5383 10.8033 14.3325 11.0894 14.1967 11.41C13.6887 10.8921 13.3855 10.2076 13.3434 9.48335C14.2634 8.74308 14.9118 7.71842 15.1867 6.57002C15.6426 6.37771 16.1389 6.30112 16.6315 6.34706C17.1241 6.393 17.5977 6.56006 18.0101 6.83335L18.3834 6.28002C17.9389 5.9864 17.4359 5.79315 16.9091 5.71371C16.3824 5.63427 15.8447 5.67054 15.3334 5.82002C15.3334 5.66002 15.3567 5.48669 15.3567 5.33336C15.3567 4.63185 15.2184 3.93724 14.9495 3.2893C14.6806 2.64136 14.2866 2.05282 13.7899 1.5574C13.2933 1.06198 12.7038 0.669413 12.0552 0.402174C11.4065 0.134935 10.7116 -0.00172161 10.0101 3.21534e-05C9.30116 -0.00244259 8.59901 0.137962 7.94555 0.412862C7.29209 0.687761 6.70072 1.09152 6.20676 1.60003L6.67676 2.06669C7.10901 1.6203 7.62722 1.26611 8.20012 1.02549C8.77301 0.784873 9.38872 0.66282 10.0101 0.666698C10.9312 0.667279 11.8316 0.940456 12.5978 1.45182C13.3639 1.96318 13.9616 2.68985 14.3156 3.54028C14.6695 4.39072 14.7638 5.32688 14.5867 6.23083C14.4095 7.13478 13.9688 7.96608 13.3201 8.62002C13.2425 7.94956 12.9633 7.31845 12.5192 6.81015C12.0752 6.30185 11.4874 5.94031 10.8334 5.77335C11.1533 5.59162 11.404 5.30917 11.5466 4.97004C11.6891 4.6309 11.7154 4.25413 11.6214 3.89846C11.5275 3.54279 11.3184 3.22821 11.027 3.00376C10.7355 2.7793 10.378 2.65759 10.0101 2.65759C9.64221 2.65759 9.28467 2.7793 8.9932 3.00376C8.70173 3.22821 8.49271 3.54279 8.39873 3.89846C8.30475 4.25413 8.33108 4.6309 8.47362 4.97004C8.61616 5.30917 8.8669 5.59162 9.18675 5.77335C8.53281 5.94031 7.94495 6.30185 7.50093 6.81015C7.05691 7.31845 6.77765 7.94956 6.70009 8.62002C5.98626 7.90121 5.52571 6.96965 5.388 5.96602C5.2503 4.96239 5.44291 3.9412 5.93676 3.05669L5.35676 2.72336C4.90938 3.52039 4.67517 4.41935 4.67676 5.33336C4.67676 5.49669 4.67676 5.66669 4.7001 5.82002C4.18881 5.67054 3.6511 5.63427 3.12438 5.71371C2.59765 5.79315 2.09456 5.9864 1.6501 6.28002L2.0101 6.83335C2.42016 6.56344 2.89019 6.39829 3.37895 6.35237C3.86772 6.30646 4.36028 6.3812 4.81343 6.57002C5.09371 7.72113 5.7493 8.74615 6.67676 9.48335C6.63872 10.2119 6.33654 10.9015 5.82676 11.4233C5.69134 11.1031 5.48608 10.8172 5.22598 10.5866C4.96588 10.3559 4.65751 10.1862 4.32343 10.09C4.48135 9.95847 4.59491 9.78147 4.64865 9.58309C4.70238 9.38471 4.69369 9.17459 4.62374 8.98133C4.5538 8.78807 4.426 8.62105 4.25775 8.50301C4.0895 8.38497 3.88896 8.32164 3.68343 8.32164C3.4779 8.32164 3.27736 8.38497 3.10911 8.50301C2.94086 8.62105 2.81306 8.78807 2.74312 8.98133C2.67318 9.17459 2.66448 9.38471 2.71822 9.58309C2.77195 9.78147 2.88551 9.95847 3.04343 10.09C2.70874 10.1858 2.39971 10.3552 2.13901 10.5859C1.87831 10.8167 1.67253 11.1028 1.53677 11.4233C0.988616 10.8654 0.680029 10.1155 0.67677 9.33335C0.672691 8.74025 0.846886 8.1596 1.17677 7.66668L0.623436 7.30668C0.317101 7.76249 0.117066 8.28128 0.0381015 8.82475C-0.0408629 9.36822 0.00326112 9.92249 0.167215 10.4466C0.331169 10.9708 0.610765 11.4514 0.985355 11.853C1.35995 12.2546 1.81996 12.5669 2.33143 12.7669C2.8429 12.9669 3.39277 13.0494 3.94041 13.0084C4.48806 12.9674 5.0195 12.8039 5.49549 12.53C5.97148 12.2561 6.37986 11.8787 6.69048 11.4258C7.00109 10.9729 7.20601 10.456 7.29009 9.91335C8.11059 10.4061 9.04966 10.6664 10.0068 10.6664C10.9638 10.6664 11.9029 10.4061 12.7234 9.91335C12.8075 10.456 13.0124 10.9729 13.323 11.4258C13.6336 11.8787 14.042 12.2561 14.518 12.53C14.994 12.8039 15.5254 12.9674 16.0731 13.0084C16.6207 13.0494 17.1706 12.9669 17.6821 12.7669C18.1935 12.5669 18.6536 12.2546 19.0281 11.853C19.4027 11.4514 19.6823 10.9708 19.8463 10.4466C20.0102 9.92249 20.0544 9.36822 19.9754 8.82475C19.8964 8.28128 19.6964 7.76249 19.3901 7.30668L18.8434 7.66668Z" fill="#5B6B79"/>
<path d="M10.0101 11.3334L8.77343 13.9667L6.0101 14.39L8.0101 16.44L7.53676 19.3334L10.0101 17.9667L12.4834 19.3334L12.0101 16.44L14.0101 14.39L11.2468 13.9667L10.0101 11.3334Z" fill="#5B6B79"/>
</svg>
