<svg width="30" height="30" viewBox="0 0 30 30" fill="none" xmlns="http://www.w3.org/2000/svg">
<path d="M15 6.5C15 5.99 15.05 5.49 15.14 5H4C1.79 5 0 6.79 0 9V20C0 22.21 1.79 24 4 24H11C11.55 24 12 24.45 12 25C12 25.55 11.55 26 11 26H8.38L9.43 28.11C10.01 29.28 11.19 30 12.5 30C13.81 30 14.98 29.27 15.57 28.11L17.62 24H23C25.21 24 27 22.21 27 20V14.24C25.93 14.73 24.75 15 23.5 15C18.81 15 15 11.19 15 6.5ZM5.5 9.5H12.5C13.05 9.5 13.5 9.95 13.5 10.5C13.5 11.05 13.05 11.5 12.5 11.5H5.5C4.95 11.5 4.5 11.05 4.5 10.5C4.5 9.95 4.95 9.5 5.5 9.5ZM5.5 13.5H14.5C15.05 13.5 15.5 13.95 15.5 14.5C15.5 15.05 15.05 15.5 14.5 15.5H5.5C4.95 15.5 4.5 15.05 4.5 14.5C4.5 13.95 4.95 13.5 5.5 13.5ZM6 19.5H5.5C4.95 19.5 4.5 19.05 4.5 18.5C4.5 17.95 4.95 17.5 5.5 17.5H6C6.55 17.5 7 17.95 7 18.5C7 19.05 6.55 19.5 6 19.5ZM21.5 19.5H9.5C8.95 19.5 8.5 19.05 8.5 18.5C8.5 17.95 8.95 17.5 9.5 17.5H21.5C22.05 17.5 22.5 17.95 22.5 18.5C22.5 19.05 22.05 19.5 21.5 19.5Z" fill="#FDB90E"/>
<path d="M23.5 0C19.92 0 17 2.92 17 6.5C17 10.08 19.92 13 23.5 13C27.08 13 30 10.08 30 6.5C30 2.92 27.08 0 23.5 0ZM25.78 8.78C25.58 8.98 25.33 9.07 25.07 9.07C24.81 9.07 24.56 8.97 24.36 8.78L22.79 7.21C22.6 7.02 22.5 6.77 22.5 6.5V4.14C22.5 3.59 22.95 3.14 23.5 3.14C24.05 3.14 24.5 3.59 24.5 4.14V6.08L25.78 7.36C26.17 7.75 26.17 8.38 25.78 8.77V8.78Z" fill="#FDB90E"/>
</svg>
