<svg width="27" height="22" viewBox="0 0 27 22" fill="none" xmlns="http://www.w3.org/2000/svg">
<path fill-rule="evenodd" clip-rule="evenodd" d="M17.7935 17.632C18.2545 17.2853 18.8243 17.0242 19.4489 16.849C20.6278 17.8156 22.327 17.8157 23.5058 16.849C25.0537 17.2833 26.2645 18.2436 26.3188 19.7314V22H18.6427V19.7197C18.6277 18.8927 18.2788 18.1669 17.7935 17.632ZM5.38242 0C7.44674 0 9.12018 1.67344 9.12018 3.73776C9.12018 5.80208 7.44674 7.47552 5.38242 7.47552C3.3181 7.47552 1.64466 5.80208 1.64466 3.73776C1.64466 1.67344 3.3181 0 5.38242 0ZM5.70338 6.19675V5.87403C6.32835 5.74832 6.84537 5.24708 6.84537 4.59724C6.84537 2.87555 4.70958 3.66496 4.70958 2.75016C4.70958 2.60979 4.77816 2.48029 4.88905 2.38442C5.30678 2.02318 6.05521 2.26615 6.05521 2.75016C6.05521 2.92744 6.19889 3.07112 6.37617 3.07112C6.55345 3.07112 6.69713 2.92744 6.69713 2.75016C6.69713 2.17655 6.25116 1.7294 5.70333 1.6054V1.27882C5.70333 1.10154 5.55965 0.957857 5.38237 0.957857C5.20509 0.957857 5.06141 1.10154 5.06141 1.27882V1.6054C4.51358 1.7294 4.0676 2.17655 4.0676 2.75016C4.0676 4.3761 6.20339 3.52357 6.20339 4.59724C6.20339 4.77297 6.11823 4.93452 5.98048 5.0536C5.46988 5.49519 4.56129 5.19551 4.56129 4.59724C4.56129 4.41996 4.41761 4.27628 4.24033 4.27628C4.06305 4.27628 3.91937 4.41996 3.91937 4.59724C3.91937 5.24703 4.43639 5.74832 5.06135 5.87403V6.19675C5.06135 6.37403 5.20504 6.51772 5.38231 6.51772C5.55959 6.51772 5.70328 6.37403 5.70328 6.19675H5.70338ZM24.3533 1.19109V2.0303C24.3533 2.20757 24.497 2.35126 24.6743 2.35126C24.8515 2.35126 24.9952 2.20757 24.9952 2.0303V0.416287C24.9952 0.23901 24.8515 0.0953257 24.6743 0.0953257H23.0602C22.883 0.0953257 22.7393 0.23901 22.7393 0.416287C22.7393 0.593565 22.883 0.737249 23.0602 0.737249H23.8995L18.2981 6.33862L13.955 3.83111C13.8267 3.7568 13.6682 3.78152 13.5681 3.88171L13.5676 3.88123L6.8873 10.5614C6.76197 10.6867 6.76197 10.8899 6.8873 11.0152C7.01259 11.1405 7.21581 11.1405 7.34114 11.0152L13.8478 4.50866L18.1722 7.00536C18.297 7.08951 18.4679 7.07635 18.5783 6.96599L24.3532 1.19104L24.3533 1.19109ZM8.31799 19.7314V21.9999H18.0008V19.7314C17.9465 18.2436 16.7357 17.2833 15.1879 16.849C14.009 17.8157 12.3098 17.8156 11.131 16.849C9.58322 17.2831 8.37229 18.2436 8.31804 19.7314H8.31799ZM21.4774 11.8122C20.0637 11.8122 18.9176 12.9583 18.9176 14.372C18.9176 15.7858 20.0637 16.9318 21.4774 16.9318C22.8912 16.9318 24.0373 15.7857 24.0373 14.372C24.0373 12.9583 22.8912 11.8122 21.4774 11.8122ZM4.84139 11.8122C6.25512 11.8122 7.40122 12.9583 7.40122 14.372C7.40122 15.7858 6.25512 16.9318 4.84139 16.9318C3.42766 16.9318 2.28161 15.7857 2.28161 14.372C2.28161 12.9583 3.42766 11.8122 4.84139 11.8122ZM13.1594 11.8122C14.5731 11.8122 15.7192 12.9583 15.7192 14.372C15.7192 15.7858 14.5731 16.9318 13.1594 16.9318C11.7456 16.9318 10.5996 15.7857 10.5996 14.372C10.5996 12.9583 11.7456 11.8122 13.1594 11.8122ZM0 19.7314C0.054296 18.2436 1.26518 17.2831 2.81291 16.849C3.99175 17.8157 5.69097 17.8156 6.86981 16.849C7.49451 17.0243 8.06422 17.2853 8.52528 17.632C8.03993 18.167 7.69105 18.8927 7.67607 19.7197V22H0V19.7314Z" fill="#5B6B79"/>
</svg>
