<svg width="22" height="22" viewBox="0 0 22 22" fill="none" xmlns="http://www.w3.org/2000/svg">
<path d="M18.7915 9.59552C18.7915 11.4142 18.2521 13.1921 17.2417 14.7043C16.2313 16.2165 14.7952 17.3951 13.1149 18.0911C11.4346 18.7871 9.58572 18.9692 7.80197 18.6144C6.01821 18.2596 4.37972 17.3838 3.0937 16.0977C1.80769 14.8117 0.931896 13.1732 0.577084 11.3895C0.222273 9.60572 0.404375 7.75681 1.10036 6.07655C1.79635 4.39628 2.97497 2.96014 4.48716 1.94972C5.99936 0.939302 7.77722 0.399994 9.59592 0.399994C12.0347 0.399994 14.3736 1.36881 16.0981 3.0933C17.8226 4.8178 18.7915 7.15672 18.7915 9.59552Z" stroke="#9C9C9C" stroke-width="0.8" stroke-linecap="round" stroke-linejoin="round"/>
<path d="M21.0899 21.0899L16.0898 16.0899" stroke="#9C9C9C" stroke-width="0.8" stroke-linecap="round" stroke-linejoin="round"/>
</svg>
