<svg width="26" height="25" viewBox="0 0 26 25" fill="none" xmlns="http://www.w3.org/2000/svg">
<path d="M11.7844 0.690981C12.0837 -0.230329 13.3871 -0.230329 13.6865 0.690982L16.0074 7.83392C16.1412 8.24594 16.5252 8.5249 16.9584 8.5249H24.4689C25.4377 8.5249 25.8404 9.76452 25.0567 10.3339L18.9806 14.7485C18.6301 15.0031 18.4834 15.4545 18.6173 15.8665L20.9382 23.0095C21.2375 23.9308 20.1831 24.6969 19.3993 24.1275L13.3232 19.7129C12.9727 19.4583 12.4981 19.4583 12.1476 19.7129L6.07148 24.1275C5.28777 24.6969 4.23329 23.9308 4.53264 23.0095L6.85352 15.8665C6.9874 15.4545 6.84074 15.0031 6.49025 14.7485L0.414102 10.3339C-0.369611 9.76452 0.0331643 8.5249 1.00189 8.5249H8.51242C8.94564 8.5249 9.3296 8.24594 9.46347 7.83392L11.7844 0.690981Z" fill="#FBC52A"/>
</svg>
