<svg width="24" height="24" viewBox="0 0 24 24" fill="none" xmlns="http://www.w3.org/2000/svg">
<path d="M5 13.0137L3.08203 13.5781L3.36328 14.5371C4.45978 18.2754 7.92035 21 12 21C14.8303 21 17.3486 19.6746 19 17.623V20H21V14H15V16H17.7441C16.4807 17.8122 14.3853 19 12 19C8.80961 19 6.13236 16.8763 5.28125 13.9746L5 13.0137ZM12 3C9.16969 3 6.65143 4.32543 5 6.37695V4H3V10H9V8H6.25586C7.51934 6.18782 9.61466 5 12 5C15.1904 5 17.8676 7.12367 18.7188 10.0254L19 10.9863L20.918 10.4219L20.6367 9.46289C19.5402 5.72457 16.0797 3 12 3Z" fill="#5B6B79"/>
</svg>
