<svg width="22" height="24" viewBox="0 0 22 24" fill="none" xmlns="http://www.w3.org/2000/svg">
<path fill-rule="evenodd" clip-rule="evenodd" d="M11 0C9.72365 0 8.68896 1.03469 8.68896 2.31104C8.68896 3.58739 9.72365 4.62208 11 4.62208C12.2763 4.62208 13.311 3.58739 13.311 2.31104C13.311 1.03469 12.2763 0 11 0ZM11 7.76786C8.13211 7.76786 5.80757 10.0923 5.80757 12.9603C5.80757 15.8282 8.13206 18.1527 11 18.1527C13.8679 18.1527 16.1924 15.8283 16.1924 12.9603C16.1924 10.0923 13.8679 7.76786 11 7.76786ZM11 10.1099C12.5744 10.1099 13.8504 11.3859 13.8504 12.9603C13.8504 14.5347 12.5744 15.8107 11 15.8107C9.42562 15.8107 8.14961 14.5347 8.14961 12.9603C8.14956 11.3859 9.42562 10.1099 11 10.1099ZM4.54472 1.88122C5.82107 1.88122 6.85576 2.91591 6.85576 4.19226C6.85576 5.46861 5.82107 6.5033 4.54472 6.5033C3.26837 6.5033 2.23368 5.46861 2.23368 4.19226C2.23368 2.91591 3.26837 1.88122 4.54472 1.88122ZM17.4554 1.88122C18.7317 1.88122 19.7664 2.91591 19.7664 4.19226C19.7664 5.46861 18.7317 6.5033 17.4554 6.5033C16.179 6.5033 15.1443 5.46861 15.1443 4.19226C15.1443 2.91591 16.179 1.88122 17.4554 1.88122ZM16.6697 11.0713C16.2672 9.86257 15.489 8.82563 14.4737 8.09876C15.2741 7.40924 16.316 6.99233 17.4554 6.99233C19.6012 6.99233 21.4016 8.47122 21.8933 10.4653C21.9697 10.7752 21.7376 11.0713 21.4185 11.0713H16.6697ZM22 12.9603V14.449L20.1771 15.1506C19.946 16.1219 19.5609 17.0494 19.0375 17.8995L19.8309 19.6858L17.7255 21.7911L15.9398 20.998C15.0896 21.5216 14.1616 21.9067 13.1902 22.1378L12.4887 23.9602H9.51138L8.80974 22.1374C7.83847 21.9062 6.91092 21.5212 6.06082 20.9978L4.27451 21.7911L2.16918 19.6858L2.96232 17.9001C2.43866 17.0498 2.05369 16.1218 1.82245 15.1504L0 14.449V12.9603H5.0252C5.0252 16.2601 7.70023 18.935 11 18.935C14.2997 18.935 16.9748 16.2601 16.9748 12.9603H22ZM8.21988 7.67085C9.05037 7.23345 9.99611 6.98549 11 6.98549C12.0039 6.98549 12.9497 7.2334 13.7801 7.6708C14.0571 7.40958 14.3615 7.17819 14.6877 6.98109C13.8559 5.84723 12.514 5.11106 11 5.11106C9.48601 5.11106 8.14409 5.84723 7.31232 6.98113C7.63853 7.17829 7.94287 7.40958 8.21988 7.67085ZM0.581549 11.0713C0.262438 11.0713 0.0303171 10.7751 0.106745 10.4653C0.598419 8.47117 2.39881 6.99228 4.54472 6.99228C5.68405 6.99228 6.72593 7.40919 7.5263 8.09871C6.51093 8.82553 5.73285 9.86267 5.33027 11.0713H0.581549Z" fill="#5B6B79"/>
</svg>
