<svg width="38" height="37" viewBox="0 0 38 37" fill="none" xmlns="http://www.w3.org/2000/svg">
<path d="M37.9224 23.163C37.6601 19.7589 35.1718 16.9653 31.92 16.1028C33.435 15.3489 34.4752 13.815 34.4752 12.0478C34.4752 9.53791 32.3781 7.4959 29.8004 7.4959C27.2227 7.4959 25.1255 9.53784 25.1255 12.0478C25.1255 13.8145 26.1653 15.3482 27.6797 16.1022C26.8987 16.3082 26.1568 16.6263 25.4768 17.043C24.3728 15.6306 22.8407 14.6342 21.1217 14.1817C22.6355 13.4275 23.6747 11.8941 23.6747 10.1279C23.6747 7.61803 21.5775 5.5761 18.9998 5.5761C16.4222 5.5761 14.325 7.61803 14.325 10.1279C14.325 11.8941 15.3642 13.4275 16.878 14.1817C15.159 14.6342 13.6269 15.6306 12.523 17.043C11.8429 16.6263 11.1011 16.3083 10.32 16.1022C11.8344 15.3482 12.8743 13.8144 12.8743 12.0478C12.8743 9.53791 10.7771 7.4959 8.19939 7.4959C5.6217 7.4959 3.5245 9.53784 3.5245 12.0478C3.5245 13.8149 4.56482 15.3489 6.07977 16.1028C2.82795 16.9653 0.339622 19.7589 0.0773332 23.1631C0.0541027 23.4656 0.161646 23.7661 0.372575 23.9874C0.583505 24.2086 0.8832 24.3356 1.19477 24.3356H12.2059C12.1953 24.4866 12.1894 24.639 12.1894 24.7926C12.1894 28.4491 15.2446 31.4239 19 31.4239C22.7553 31.4239 25.8105 28.4491 25.8105 24.7926C25.8105 24.639 25.8047 24.4866 25.7941 24.3356H36.8051C37.1167 24.3356 37.4164 24.2086 37.6273 23.9874C37.8383 23.7661 37.9457 23.4655 37.9224 23.163ZM18.9998 15.0633C21.1751 15.0633 23.2008 16.0505 24.5197 17.7277C23.9367 18.2129 23.4206 18.7819 22.9897 19.4218C21.8677 18.6294 20.489 18.1613 18.9999 18.1613C17.5109 18.1613 16.1321 18.6294 15.0101 19.4219C14.5792 18.782 14.0632 18.213 13.4801 17.7278C14.799 16.0506 16.8246 15.0633 18.9998 15.0633ZM15.8611 25.2358C15.656 25.0416 15.6515 24.7211 15.8509 24.5215C15.9525 24.4197 16.0877 24.3687 16.2231 24.3687C16.3534 24.3687 16.4838 24.416 16.5841 24.5111L17.6331 25.5068C17.8665 25.7282 18.2398 25.7252 18.4694 25.4997L21.4096 22.61C21.5072 22.5147 21.6371 22.4619 21.7754 22.4615H21.777C21.9149 22.4615 22.0447 22.5137 22.1427 22.6085C22.3455 22.8049 22.3464 23.1252 22.144 23.3236L18.4291 26.9747C18.2296 27.1699 17.9024 27.1726 17.7001 26.981L15.8611 25.2358ZM1.26728 23.1794C1.57277 19.6991 4.60379 16.9833 8.19931 16.9833C10.6083 16.9833 12.8319 18.2008 14.1042 20.1876C13.2882 21.0098 12.6881 22.0361 12.3935 23.1794H1.26728ZM25.6062 23.1794C25.3116 22.0361 24.7114 21.0097 23.8955 20.1876C25.1678 18.2008 27.3915 16.9833 29.8005 16.9833C33.396 16.9833 36.427 19.6992 36.7325 23.1794H25.6062Z" fill="#009BBE"/>
</svg>
