<svg width="34" height="36" viewBox="0 0 34 36" fill="none" xmlns="http://www.w3.org/2000/svg">
<path d="M21.1938 12.7242C22.4071 12.4732 23.5174 11.7801 24.2683 10.6928C25.8254 8.43785 25.2503 5.30703 22.9356 3.70862C20.6208 2.11017 17.4893 2.68137 15.9322 4.93631C15.3761 5.74152 14.8914 6.90156 15.1348 7.89773L2.20167 20.8309L0.142448 16.036C-0.238912 15.1479 0.171813 14.1188 1.0599 13.7374L12.3537 8.88722C12.034 6.96666 12.5251 4.94261 13.6282 3.34525C16.0816 -0.207597 20.965 -1.05492 24.5266 1.40457C28.0883 3.86405 29.0257 8.73098 26.5723 12.2838C26.068 13.0141 25.4598 13.6306 24.7813 14.1275C24.2783 14.0584 23.7648 14.0227 23.2429 14.0227C22.1613 14.0227 21.1156 14.176 20.1262 14.4621C19.9186 13.6951 20.4138 12.8855 21.1938 12.7242Z" fill="#79AFFF"/>
<path d="M18.8064 14.9358C18.7784 14.8468 18.7547 14.7555 18.7354 14.6622C18.4222 13.1479 19.396 11.6664 20.9103 11.3532C21.787 11.1719 22.5793 10.675 23.1164 9.89723C23.4097 9.4724 23.5979 9.00176 23.6847 8.51764L21.3272 6.16014C20.6438 5.47673 19.5358 5.47673 18.8524 6.16014L2.08043 22.9321C1.39702 23.6155 1.39702 24.7235 2.08043 25.407L11.0958 34.4225C11.7792 35.1057 12.8873 35.1057 13.5707 34.4225L15.0906 32.9024C13.201 30.8974 12.043 28.1953 12.043 25.2227C12.043 20.6133 14.8276 16.6542 18.8064 14.9358Z" fill="#79AFFF"/>
<path fill-rule="evenodd" clip-rule="evenodd" d="M19.5616 16.1376C15.9734 17.593 13.4429 21.1123 13.4429 25.2227C13.4429 27.8087 14.4445 30.1607 16.0809 31.9119C17.8695 33.8261 20.4164 35.0227 23.2429 35.0227C28.6553 35.0227 33.0429 30.6351 33.0429 25.2227C33.0429 22.3963 31.8462 19.8494 29.9321 18.0608C28.6124 16.8275 26.9513 15.9548 25.1061 15.5996C24.5029 15.4835 23.88 15.4227 23.2429 15.4227C21.9409 15.4227 20.6982 15.6766 19.5616 16.1376ZM26.2127 22.2529C25.9393 21.9795 25.4961 21.9795 25.2228 22.2529L20.273 27.2026C19.9997 27.476 19.9997 27.9192 20.273 28.1926C20.5464 28.4659 20.9896 28.4659 21.263 28.1926L26.2127 23.2429C26.4861 22.9695 26.4861 22.5263 26.2127 22.2529ZM21.1429 24.8727C21.9161 24.8727 22.5429 24.2459 22.5429 23.4727C22.5429 22.6995 21.9161 22.0727 21.1429 22.0727C20.3697 22.0727 19.7429 22.6995 19.7429 23.4727C19.7429 24.2459 20.3697 24.8727 21.1429 24.8727ZM25.3429 28.3727C26.1161 28.3727 26.7429 27.7459 26.7429 26.9727C26.7429 26.1995 26.1161 25.5727 25.3429 25.5727C24.5697 25.5727 23.9429 26.1995 23.9429 26.9727C23.9429 27.7459 24.5697 28.3727 25.3429 28.3727Z" fill="#79AFFF"/>
<path d="M26.5066 14.5057C28.1123 14.9941 29.5652 15.8335 30.7759 16.9345C30.9628 16.3335 30.8186 15.6515 30.3426 15.1756L27.932 12.7651C27.5301 13.4006 27.051 13.9871 26.5066 14.5057Z" fill="#79AFFF"/>
</svg>
