<svg width="35" height="30" viewBox="0 0 35 30" fill="none" xmlns="http://www.w3.org/2000/svg">
<path d="M31.1408 0H16.0722C14.3284 0 12.915 1.41358 12.915 3.15713V10.5796C13.7116 10.9755 14.5722 11.4036 15.3756 11.8029L16.6047 9.34368C17.3489 7.85657 19.1631 7.25236 20.6497 7.99526C22.1394 8.74078 22.7431 10.55 21.9973 12.04L19.8063 16.4231C19.8644 17.0032 19.8128 17.5881 19.6493 18.1541H21.0958L17.2806 28.6452C17.0542 29.2675 17.4918 29.9936 18.2252 29.9936C18.6353 29.9936 19.021 29.7406 19.1691 29.3318L23.234 18.1541H23.9382L28.0444 29.3352C28.1938 29.7419 28.5785 29.9936 28.9882 29.9936C29.6736 29.9936 30.176 29.3091 29.9308 28.6426L26.0789 18.1541H31.1408C32.8843 18.1541 34.2979 16.7405 34.2979 14.9969V3.15713C34.2979 1.41358 32.8843 0 31.1408 0ZM28.9877 13.8492H24.4793C23.9245 13.8492 23.4745 13.3991 23.4745 12.8444C23.4745 12.2891 23.9245 11.8395 24.4793 11.8395H28.9877C29.543 11.8395 29.9926 12.2891 29.9926 12.8444C29.9926 13.3991 29.543 13.8492 28.9877 13.8492ZM28.9877 10.0819H24.4793C23.9245 10.0819 23.4745 9.63231 23.4745 9.07703C23.4745 8.52227 23.9245 8.07219 24.4793 8.07219H28.9877C29.543 8.07219 29.9926 8.52227 29.9926 9.07703C29.9926 9.63231 29.543 10.0819 28.9877 10.0819ZM28.9877 6.31504H18.2252C17.67 6.31504 17.2204 5.86495 17.2204 5.3102C17.2204 4.75544 17.67 4.30536 18.2252 4.30536H28.9877C29.543 4.30536 29.9926 4.75544 29.9926 5.3102C29.9926 5.86495 29.543 6.31504 28.9877 6.31504Z" fill="#009BBE"/>
<path d="M17.6799 17.7231C17.8615 17.1911 17.8602 16.6353 17.7069 16.1282L20.2006 11.1411C20.4487 10.6447 20.2477 10.041 19.7513 9.79298C19.2552 9.54464 18.6515 9.74587 18.4032 10.2423L16.2763 14.4956C15.005 13.8626 13.0736 12.9022 11.5177 12.1284C10.0701 11.4086 9.03699 10.763 7.27434 10.763H6.38647C7.75897 10.763 8.98387 10.1313 9.78565 9.14271C10.3974 8.39039 10.7633 7.43161 10.7633 6.38673C10.7633 3.96911 8.80384 2.00967 6.38595 2.00967C3.96911 2.00967 2.00967 3.96911 2.00967 6.38673C2.00967 7.54779 2.46185 8.60287 3.19952 9.38581C3.99711 10.2339 5.1299 10.763 6.38569 10.7633C4.70206 10.7633 3.05612 11.4455 1.87203 12.6327C0.66492 13.8367 0 15.4407 0 17.1495V20.3783C0 21.7683 0.902522 22.9511 2.15255 23.3719V28.9885C2.15255 29.5435 2.60237 29.9933 3.15739 29.9933H9.61504C10.1701 29.9933 10.6199 29.5435 10.6199 28.9885V17.6985C11.5726 18.1747 12.8242 18.8004 13.8369 19.307C14.5469 19.6618 15.3764 19.6938 16.1161 19.3928C16.8538 19.0893 17.4224 18.4851 17.676 17.7349C17.6773 17.7309 17.6786 17.727 17.6799 17.7231Z" fill="#009BBE"/>
</svg>
