<svg width="18" height="17" viewBox="0 0 18 17" fill="none" xmlns="http://www.w3.org/2000/svg">
<path d="M5.05431 6.23759C5.56368 5.72822 6.07306 5.21884 6.58444 4.70746C7.39663 3.89527 8.20882 3.08308 9.02101 2.27089C9.20751 2.08439 9.39201 1.89989 9.57851 1.71339C9.10523 1.71339 8.63396 1.71339 8.16069 1.71339C8.67006 2.22276 9.17943 2.73214 9.69081 3.24352L12.1274 5.68009C12.3139 5.86659 12.4984 6.05109 12.6849 6.23759C12.8674 6.42008 13.1361 6.53038 13.3948 6.53038C13.6415 6.53038 13.9343 6.42209 14.1047 6.23759C14.2792 6.04708 14.4095 5.7964 14.3975 5.52768C14.3855 5.26096 14.2952 5.01028 14.1047 4.81776C13.5953 4.30839 13.086 3.79901 12.5746 3.28764C11.7624 2.47545 10.9502 1.66325 10.138 0.851065C9.95152 0.664562 9.76702 0.480064 9.58052 0.293561C9.19748 -0.0894716 8.54573 -0.0894716 8.16269 0.293561C7.65332 0.802935 7.14395 1.31231 6.63257 1.82369C5.82038 2.63588 5.00819 3.44807 4.196 4.26026C4.00949 4.44676 3.825 4.63126 3.63849 4.81776C3.456 5.00025 3.3457 5.26898 3.3457 5.52768C3.3457 5.77434 3.454 6.06713 3.63849 6.23759C3.82901 6.41206 4.07968 6.54241 4.34841 6.53038C4.61112 6.51835 4.86179 6.4281 5.05431 6.23759Z" fill="#5B6B79"/>
<path d="M9.86941 10.9463C9.86941 10.6154 9.86941 10.2845 9.86941 9.95361C9.86941 9.16348 9.86941 8.37335 9.86941 7.58322C9.86941 6.62463 9.86941 5.66605 9.86941 4.70546C9.86941 3.87923 9.86941 3.053 9.86941 2.22677C9.86941 1.82569 9.87543 1.4226 9.86941 1.02152C9.86941 1.01551 9.86941 1.00949 9.86941 1.00347C9.86941 0.746782 9.75711 0.476052 9.57662 0.29356C9.40215 0.119089 9.11738 -0.0112622 8.86671 0.000770199C8.60801 0.0128026 8.33928 0.0970299 8.15679 0.29356C7.9763 0.49009 7.864 0.730739 7.864 1.00347V1.99615V4.36654V7.2443V9.72299C7.864 10.1241 7.85799 10.5272 7.864 10.9282V10.9463C7.864 11.203 7.9763 11.4737 8.15679 11.6562C8.33126 11.8307 8.61603 11.961 8.86671 11.949C9.1254 11.937 9.39413 11.8527 9.57662 11.6562C9.7551 11.4597 9.86941 11.219 9.86941 10.9463Z" fill="#5B6B79"/>
<path d="M15.7173 12.1455V13.3327V13.9704C15.7173 14.1389 15.7293 14.3154 15.7072 14.4818C15.7193 14.3936 15.7313 14.3033 15.7433 14.2151C15.7293 14.3053 15.7052 14.3916 15.6711 14.4758C15.7052 14.3956 15.7393 14.3154 15.7714 14.2371C15.7353 14.3194 15.6912 14.3936 15.6371 14.4658C15.6892 14.3976 15.7413 14.3314 15.7935 14.2632C15.7373 14.3334 15.6772 14.3936 15.607 14.4497C15.6752 14.3976 15.7413 14.3454 15.8095 14.2933C15.7373 14.3474 15.6631 14.3916 15.5809 14.4277C15.6611 14.3936 15.7413 14.3595 15.8195 14.3274C15.7353 14.3615 15.6491 14.3855 15.5588 14.3996C15.6471 14.3875 15.7373 14.3755 15.8256 14.3635C15.6691 14.3835 15.5067 14.3735 15.3503 14.3735C15.0214 14.3735 14.6925 14.3735 14.3636 14.3735C13.8743 14.3735 13.383 14.3735 12.8937 14.3735C12.292 14.3735 11.6924 14.3735 11.0908 14.3735C10.431 14.3735 9.77124 14.3735 9.11346 14.3735C8.44366 14.3735 7.77586 14.3735 7.10605 14.3735C6.48638 14.3735 5.86671 14.3735 5.24704 14.3735C4.72563 14.3735 4.20222 14.3735 3.68081 14.3735C3.30781 14.3735 2.93681 14.3735 2.5638 14.3735C2.39334 14.3735 2.22288 14.3735 2.05242 14.3735C2.00028 14.3735 1.95015 14.3695 1.89801 14.3635C1.98625 14.3755 2.07649 14.3875 2.16473 14.3996C2.07448 14.3855 1.98825 14.3615 1.90402 14.3274C1.98424 14.3615 2.06446 14.3956 2.14267 14.4277C2.06045 14.3916 1.98625 14.3474 1.91405 14.2933C1.98223 14.3454 2.04841 14.3976 2.1166 14.4497C2.04641 14.3936 1.98625 14.3334 1.93009 14.2632C1.98223 14.3314 2.03437 14.3976 2.08652 14.4658C2.03237 14.3936 1.98825 14.3194 1.95215 14.2371C1.98625 14.3174 2.02034 14.3976 2.05242 14.4758C2.01833 14.3916 1.99427 14.3053 1.98023 14.2151C1.99226 14.3033 2.00429 14.3936 2.01633 14.4818C1.99828 14.3414 2.0063 14.197 2.0063 14.0567C2.0063 13.7879 2.0063 13.5192 2.0063 13.2505C2.0063 12.6288 2.0063 13.2084 2.0063 12.5867C2.0063 12.4403 2.0063 12.2919 2.0063 12.1455C2.0063 11.8888 1.894 11.6181 1.71351 11.4356C1.53904 11.2611 1.25427 11.1308 1.0036 11.1428C0.744898 11.1548 0.476173 11.2391 0.293681 11.4356C0.113194 11.6321 0.000891292 11.8728 0.000891292 12.1455V13.3347C0.000891292 13.6656 -0.00111412 13.9945 0.000891292 14.3254C0.000891292 14.4938 0.0249562 14.6663 0.0610535 14.8307C0.133248 15.1616 0.311729 15.4464 0.526308 15.7011C0.891292 16.1363 1.47487 16.3689 2.03437 16.3749C2.35524 16.3789 2.67811 16.3749 2.99898 16.3749H5.37137H8.46572H11.6403H14.2453H15.611H15.6812C16.0181 16.3709 16.3109 16.2887 16.6117 16.1463C16.724 16.0921 16.8182 16.022 16.9165 15.9437C17.0228 15.8615 17.1191 15.7833 17.2033 15.679C17.4118 15.4203 17.5943 15.1356 17.6585 14.8027C17.6886 14.6442 17.7127 14.4798 17.7127 14.3174C17.7127 14.199 17.7127 14.0807 17.7127 13.9624C17.7127 13.0279 17.7127 13.2986 17.7127 12.3641C17.7127 12.2919 17.7127 12.2177 17.7127 12.1455C17.7127 11.8888 17.6004 11.6181 17.4199 11.4356C17.2454 11.2611 16.9606 11.1308 16.7099 11.1428C16.4513 11.1548 16.1825 11.2391 16 11.4356C15.8316 11.6321 15.7173 11.8728 15.7173 12.1455Z" fill="#5B6B79"/>
</svg>
