<svg width="18" height="13" viewBox="0 0 18 13" fill="none" xmlns="http://www.w3.org/2000/svg">
<path d="M8.91719 8.08738C10.0337 8.08738 10.9389 7.18224 10.9389 6.06569C10.9389 4.94915 10.0337 4.04401 8.91719 4.04401C7.80065 4.04401 6.89551 4.94915 6.89551 6.06569C6.89551 7.18224 7.80065 8.08738 8.91719 8.08738Z" fill="#5B6B79"/>
<path d="M17.0402 4.27071L14.9008 2.32563C13.2671 0.829715 11.1323 0 8.91712 0C6.70197 0 4.56716 0.829715 2.93341 2.32563L0.794465 4.27071C0.544275 4.49802 0.34436 4.77512 0.207545 5.08422C0.0707307 5.39333 3.73247e-05 5.72762 1.4776e-08 6.06566C-3.72951e-05 6.40369 0.0705824 6.738 0.207329 7.04714C0.344075 7.35627 0.543929 7.63342 0.794069 7.86078L2.93341 9.80586C4.56713 11.3018 6.70195 12.1316 8.91712 12.1316C11.1323 12.1316 13.2671 11.3018 14.9008 9.80586L17.0398 7.86078C17.29 7.63347 17.4899 7.35637 17.6267 7.04727C17.7635 6.73816 17.8342 6.40387 17.8342 6.06583C17.8343 5.7278 17.7637 5.39349 17.6269 5.08435C17.4902 4.77522 17.2903 4.49807 17.0402 4.27071ZM8.91712 9.70478C8.19738 9.70478 7.49382 9.49135 6.89538 9.09149C6.29694 8.69163 5.83052 8.12329 5.55509 7.45834C5.27966 6.7934 5.2076 6.06171 5.34801 5.3558C5.48842 4.6499 5.83501 4.00149 6.34393 3.49256C6.85286 2.98363 7.50127 2.63705 8.20718 2.49664C8.91308 2.35622 9.64477 2.42829 10.3097 2.70372C10.9747 2.97915 11.543 3.44557 11.9429 4.04401C12.3427 4.64244 12.5562 5.34601 12.5562 6.06574C12.5551 7.03055 12.1714 7.95555 11.4891 8.63777C10.8069 9.31999 9.88193 9.70373 8.91712 9.70478Z" fill="#5B6B79"/>
</svg>
